{"glyphs":{"0":{"ha":1103,"x_min":132,"x_max":971,"o":"m 253 121 l 253 42 q 265 13 253 25 q 294 0 278 0 l 810 0 q 839 13 826 0 q 851 42 851 25 l 851 121 l 928 121 q 958 133 946 121 q 971 163 971 146 l 971 933 q 958 963 971 950 q 928 975 946 975 l 851 975 l 851 1053 q 839 1083 851 1071 q 810 1096 826 1096 l 294 1096 q 265 1083 278 1096 q 253 1053 253 1071 l 253 975 l 175 975 q 144 963 157 975 q 132 933 132 950 l 132 163 q 144 133 132 146 q 175 121 157 121 l 253 121 m 344 883 l 631 883 l 631 847 l 551 847 q 522 835 535 847 q 510 804 510 822 l 510 589 l 424 589 q 394 576 406 589 q 382 547 382 564 l 382 340 l 344 340 l 344 883 m 472 249 l 551 249 q 581 261 568 249 q 593 290 593 274 l 593 506 l 679 506 q 709 517 697 506 q 721 547 721 529 l 721 754 l 758 754 l 758 213 l 472 213 l 472 249 z "},"1":{"ha":963,"x_min":126,"x_max":836,"o":"m 168 204 q 139 192 151 204 q 126 163 126 179 l 126 42 q 139 13 126 25 q 168 0 151 0 l 794 0 q 824 13 811 0 q 836 42 836 25 l 836 163 q 824 192 836 179 q 794 204 811 204 l 588 204 l 588 1053 q 575 1083 588 1071 q 546 1096 563 1096 l 417 1096 q 388 1083 400 1096 q 375 1053 375 1071 l 375 975 l 289 975 q 260 963 272 975 q 247 933 247 950 l 247 847 l 168 847 q 139 835 151 847 q 126 804 126 822 l 126 685 q 139 654 126 667 q 168 642 151 642 l 289 642 q 318 654 306 642 q 331 685 331 667 l 331 756 l 368 756 l 368 204 l 168 204 z "},"2":{"ha":1103,"x_min":132,"x_max":971,"o":"m 175 975 q 144 963 157 975 q 132 933 132 950 l 132 813 q 144 783 132 794 q 175 771 157 771 l 294 771 q 325 783 313 771 q 338 813 338 794 l 338 892 l 767 892 l 767 718 l 679 718 q 650 706 663 718 q 638 676 638 694 l 638 589 l 551 589 q 522 576 535 589 q 510 547 510 564 l 510 461 l 424 461 q 394 449 406 461 q 382 419 382 436 l 382 332 l 294 332 q 265 320 278 332 q 253 290 253 308 l 253 204 l 175 204 q 144 192 157 204 q 132 163 132 179 l 132 42 q 144 13 132 25 q 175 0 157 0 l 928 0 q 958 13 946 0 q 971 42 971 25 l 971 163 q 958 192 971 179 q 928 204 946 204 l 472 204 l 472 249 l 551 249 q 581 261 568 249 q 593 290 593 274 l 593 376 l 679 376 q 709 389 697 376 q 721 419 721 401 l 721 506 l 810 506 q 839 517 826 506 q 851 547 851 529 l 851 635 l 928 635 q 958 647 946 635 q 971 676 971 660 l 971 925 q 958 955 971 943 q 928 967 946 967 l 842 967 l 842 1053 q 830 1083 842 1071 q 800 1096 818 1096 l 294 1096 q 265 1083 278 1096 q 253 1053 253 1071 l 253 975 l 175 975 z "},"3":{"ha":1103,"x_min":132,"x_max":971,"o":"m 175 975 q 144 963 157 975 q 132 933 132 950 l 132 813 q 144 783 132 794 q 175 771 157 771 l 294 771 q 325 783 313 771 q 338 813 338 794 l 338 892 l 767 892 l 767 718 l 431 718 q 401 706 414 718 q 389 676 389 694 l 389 556 q 401 526 389 539 q 431 514 414 514 l 767 514 l 767 204 l 329 204 l 329 283 q 317 313 329 300 q 288 325 304 325 l 175 325 q 144 313 157 325 q 132 283 132 300 l 132 169 q 144 140 132 153 q 175 128 157 128 l 261 128 l 261 42 q 273 13 261 25 q 303 0 285 0 l 810 0 q 839 13 826 0 q 851 42 851 25 l 851 121 l 928 121 q 958 133 946 121 q 971 163 971 146 l 971 539 q 958 569 971 557 q 928 582 946 582 l 851 582 l 851 635 l 928 635 q 958 647 946 635 q 971 676 971 660 l 971 925 q 958 955 971 943 q 928 967 946 967 l 842 967 l 842 1053 q 830 1083 842 1071 q 800 1096 818 1096 l 294 1096 q 265 1083 278 1096 q 253 1053 253 1071 l 253 975 l 175 975 z "},"4":{"ha":1103,"x_min":132,"x_max":971,"o":"m 767 249 l 767 42 q 779 13 767 25 q 810 0 792 0 l 928 0 q 958 13 946 0 q 971 42 971 25 l 971 1053 q 958 1083 971 1071 q 928 1096 946 1096 l 679 1096 q 650 1083 663 1096 q 638 1053 638 1071 l 638 975 l 551 975 q 522 963 535 975 q 510 933 510 950 l 510 847 l 424 847 q 394 835 406 847 q 382 804 382 822 l 382 718 l 294 718 q 265 706 278 718 q 253 676 253 694 l 253 589 l 175 589 q 144 576 157 589 q 132 547 132 564 l 132 290 q 144 261 132 274 q 175 249 157 249 l 767 249 m 344 506 l 424 506 q 453 517 440 506 q 465 547 465 529 l 465 635 l 551 635 q 581 647 568 635 q 593 676 593 660 l 593 763 l 679 763 q 709 775 697 763 q 721 804 721 788 l 721 883 l 758 883 l 758 468 l 344 468 l 344 506 z "},"5":{"ha":1103,"x_min":132,"x_max":971,"o":"m 175 1096 q 144 1083 157 1096 q 132 1053 132 1071 l 132 556 q 144 526 132 539 q 175 514 157 514 l 767 514 l 767 204 l 329 204 l 329 283 q 317 313 329 300 q 288 325 304 325 l 175 325 q 144 313 157 325 q 132 283 132 300 l 132 169 q 144 140 132 153 q 175 128 157 128 l 261 128 l 261 42 q 273 13 261 25 q 303 0 285 0 l 810 0 q 839 13 826 0 q 851 42 851 25 l 851 121 l 928 121 q 958 133 946 121 q 971 163 971 146 l 971 539 q 958 569 971 557 q 928 582 946 582 l 842 582 l 842 676 q 830 706 842 694 q 800 718 818 718 l 344 718 l 344 892 l 800 892 q 830 903 818 892 q 842 933 842 915 l 842 1053 q 830 1083 842 1071 q 800 1096 818 1096 l 175 1096 z "},"6":{"ha":1103,"x_min":132,"x_max":971,"o":"m 175 975 q 144 963 157 975 q 132 933 132 950 l 132 169 q 144 140 132 153 q 175 128 157 128 l 261 128 l 261 42 q 273 13 261 25 q 303 0 285 0 l 810 0 q 839 13 826 0 q 851 42 851 25 l 851 121 l 928 121 q 958 133 946 121 q 971 163 971 146 l 971 539 q 958 569 971 557 q 928 582 946 582 l 842 582 l 842 676 q 830 706 842 694 q 800 718 818 718 l 344 718 l 344 892 l 800 892 q 830 903 818 892 q 842 933 842 915 l 842 1053 q 830 1083 842 1071 q 800 1096 818 1096 l 294 1096 q 265 1083 278 1096 q 253 1053 253 1071 l 253 975 l 175 975 m 338 204 l 338 506 l 767 506 l 767 204 l 338 204 z "},"7":{"ha":1103,"x_min":132,"x_max":971,"o":"m 303 332 q 273 320 285 332 q 261 290 261 308 l 261 42 q 273 13 261 25 q 303 0 285 0 l 424 0 q 453 13 440 0 q 465 42 465 25 l 465 249 l 551 249 q 581 261 568 249 q 593 290 593 274 l 593 376 l 679 376 q 709 389 697 376 q 721 419 721 401 l 721 506 l 810 506 q 839 517 826 506 q 851 547 851 529 l 851 635 l 928 635 q 958 647 946 635 q 971 676 971 660 l 971 1053 q 958 1083 971 1071 q 928 1096 946 1096 l 175 1096 q 144 1083 157 1096 q 132 1053 132 1071 l 132 933 q 144 903 132 915 q 175 892 157 892 l 758 892 l 758 718 l 679 718 q 650 706 663 718 q 638 676 638 694 l 638 589 l 551 589 q 522 576 535 589 q 510 547 510 564 l 510 461 l 424 461 q 394 449 406 461 q 382 419 382 436 l 382 332 l 303 332 z "},"8":{"ha":1103,"x_min":132,"x_max":971,"o":"m 175 975 q 144 963 157 975 q 132 933 132 950 l 132 685 q 144 654 132 667 q 175 642 157 642 l 253 642 l 253 589 l 175 589 q 144 576 157 589 q 132 547 132 564 l 132 169 q 144 140 132 153 q 175 128 157 128 l 261 128 l 261 42 q 273 13 261 25 q 303 0 285 0 l 810 0 q 839 13 826 0 q 851 42 851 25 l 851 121 l 928 121 q 958 133 946 121 q 971 163 971 146 l 971 539 q 958 569 971 557 q 928 582 946 582 l 851 582 l 851 635 l 928 635 q 958 647 946 635 q 971 676 971 660 l 971 925 q 958 955 971 943 q 928 967 946 967 l 842 967 l 842 1053 q 830 1083 842 1071 q 800 1096 818 1096 l 294 1096 q 265 1083 278 1096 q 253 1053 253 1071 l 253 975 l 175 975 m 338 204 l 338 506 l 767 506 l 767 204 l 338 204 m 338 718 l 338 892 l 767 892 l 767 718 l 338 718 z "},"9":{"ha":1103,"x_min":132,"x_max":971,"o":"m 175 975 q 144 963 157 975 q 132 933 132 950 l 132 556 q 144 526 132 539 q 175 514 157 514 l 261 514 l 261 419 q 273 389 261 401 q 303 376 285 376 l 758 376 l 758 204 l 303 204 q 273 192 285 204 q 261 163 261 179 l 261 42 q 273 13 261 25 q 303 0 285 0 l 810 0 q 839 13 826 0 q 851 42 851 25 l 851 121 l 928 121 q 958 133 946 121 q 971 163 971 146 l 971 925 q 958 955 971 943 q 928 967 946 967 l 842 967 l 842 1053 q 830 1083 842 1071 q 800 1096 818 1096 l 294 1096 q 265 1083 278 1096 q 253 1053 253 1071 l 253 975 l 175 975 m 338 589 l 338 892 l 767 892 l 767 589 l 338 589 z "},"]":{"ha":694,"x_min":0,"x_max":0,"o":""},"¨":{"ha":694,"x_min":0,"x_max":0,"o":""},"ª":{"ha":694,"x_min":0,"x_max":0,"o":""},"«":{"ha":694,"x_min":0,"x_max":0,"o":""},"­":{"ha":694,"x_min":0,"x_max":0,"o":""},"¯":{"ha":694,"x_min":0,"x_max":0,"o":""},"Ý":{"ha":694,"x_min":0,"x_max":0,"o":""},"Þ":{"ha":694,"x_min":0,"x_max":0,"o":""},"‛":{"ha":694,"x_min":0,"x_max":0,"o":""},"\u000b":{"ha":807,"x_min":33,"x_max":228,"o":"m 228 861 l 228 974 q 216 1003 228 990 q 186 1015 204 1015 l 75 1015 q 45 1003 57 1015 q 33 974 33 990 l 33 861 q 45 832 33 844 q 75 819 57 819 l 186 819 q 216 832 204 819 q 228 861 228 844 m 150 907 q 142 899 150 899 l 119 899 q 111 907 111 899 l 111 928 q 119 936 111 936 l 142 936 q 150 928 150 936 l 150 907 z "},"\f":{"ha":807,"x_min":111,"x_max":706,"o":"m 150 907 q 142 899 150 899 l 119 899 q 111 907 111 899 l 111 928 q 119 936 111 936 l 142 936 q 150 928 150 936 l 150 907 m 706 907 q 697 899 706 899 l 675 899 q 667 907 667 899 l 667 928 q 675 936 667 936 l 697 936 q 706 928 706 936 l 706 907 z "}," ":{"ha":308,"x_min":0,"x_max":0,"o":""},"!":{"ha":400,"x_min":103,"x_max":297,"o":"m 144 1093 q 115 1081 126 1093 q 103 1051 103 1068 l 103 299 q 115 269 103 281 q 144 257 126 257 l 256 257 q 285 269 274 257 q 297 299 297 281 l 297 1051 q 285 1081 297 1068 q 256 1093 274 1093 l 144 1093 m 144 196 q 115 183 126 196 q 103 154 103 171 l 103 42 q 115 13 103 25 q 144 0 126 0 l 256 0 q 285 13 274 0 q 297 42 297 25 l 297 154 q 285 183 297 171 q 256 196 274 196 l 144 196 z "},"\"":{"ha":415,"x_min":103,"x_max":313,"o":"m 144 1219 q 115 1207 128 1219 q 103 1178 103 1194 l 103 938 q 115 908 103 921 q 144 896 128 896 l 271 896 q 300 908 288 896 q 313 938 313 921 l 313 1178 q 300 1207 313 1194 q 271 1219 288 1219 l 144 1219 z "},"#":{"ha":807,"x_min":33,"x_max":783,"o":"m 783 861 l 783 974 q 772 1003 783 990 q 742 1015 760 1015 l 631 1015 q 601 1003 613 1015 q 589 974 589 990 l 589 861 q 601 832 589 844 q 631 819 613 819 l 742 819 q 772 832 760 819 q 783 861 783 844 m 506 299 l 506 1051 q 494 1081 506 1068 q 464 1093 482 1093 l 353 1093 q 323 1081 335 1093 q 311 1051 311 1068 l 311 299 q 323 269 311 281 q 353 257 335 257 l 464 257 q 494 269 482 257 q 506 299 506 281 m 228 861 l 228 974 q 216 1003 228 990 q 186 1015 204 1015 l 75 1015 q 45 1003 57 1015 q 33 974 33 990 l 33 861 q 45 832 33 844 q 75 819 57 819 l 186 819 q 216 832 204 819 q 228 861 228 844 m 506 42 l 506 154 q 494 183 506 171 q 464 196 482 196 l 353 196 q 323 183 335 196 q 311 154 311 171 l 311 42 q 323 13 311 25 q 353 0 335 0 l 464 0 q 494 13 482 0 q 506 42 506 25 m 150 907 q 142 899 150 899 l 119 899 q 111 907 111 899 l 111 928 q 119 936 111 936 l 142 936 q 150 928 150 936 l 150 907 m 506 42 q 494 13 506 25 q 464 0 482 0 l 353 0 q 323 13 335 0 q 311 42 311 25 l 311 154 q 323 183 311 171 q 353 196 335 196 l 464 196 q 494 183 482 196 q 506 154 506 171 l 506 42 m 506 42 l 506 154 q 494 183 506 171 q 464 196 482 196 l 353 196 q 323 183 335 196 q 311 154 311 171 l 311 42 q 323 13 311 25 q 353 0 335 0 l 464 0 q 494 13 482 0 q 506 42 506 25 m 506 42 q 494 13 506 25 q 464 0 482 0 l 353 0 q 323 13 335 0 q 311 42 311 25 l 311 154 q 323 183 311 171 q 353 196 335 196 l 464 196 q 494 183 482 196 q 506 154 506 171 l 506 42 m 506 42 l 506 154 q 494 183 506 171 q 464 196 482 196 l 353 196 q 323 183 335 196 q 311 154 311 171 l 311 42 q 323 13 311 25 q 353 0 335 0 l 464 0 q 494 13 482 0 q 506 42 506 25 m 706 907 q 697 899 706 899 l 675 899 q 667 907 667 899 l 667 928 q 675 936 667 936 l 697 936 q 706 928 706 936 l 706 907 z "},"$":{"ha":963,"x_min":126,"x_max":836,"o":"m 375 249 l 375 169 q 388 140 375 153 q 417 128 400 128 l 546 128 q 575 140 563 128 q 588 169 588 153 l 588 249 l 674 249 q 703 261 690 249 q 715 290 715 274 l 715 376 l 794 376 q 824 389 811 376 q 836 419 836 401 l 836 539 q 824 569 836 557 q 794 582 811 582 l 708 582 l 708 675 q 696 705 708 693 q 665 717 683 717 l 596 717 l 596 763 l 794 763 q 824 775 811 763 q 836 804 836 788 l 836 933 q 824 963 836 950 q 794 975 811 975 l 588 975 l 588 1053 q 575 1083 588 1071 q 546 1096 563 1096 l 417 1096 q 388 1083 400 1096 q 375 1053 375 1071 l 375 975 l 289 975 q 260 963 272 975 q 247 933 247 950 l 247 847 l 168 847 q 139 835 151 847 q 126 804 126 822 l 126 685 q 139 654 126 667 q 168 642 151 642 l 254 642 l 254 547 q 267 517 254 529 q 296 506 279 506 l 368 506 l 368 461 l 168 461 q 139 449 151 461 q 126 419 126 436 l 126 290 q 139 261 126 274 q 168 249 151 249 l 375 249 m 331 754 l 368 754 l 368 717 l 331 717 l 331 754 m 596 468 l 596 506 l 632 506 l 632 468 l 596 468 z "},"%":{"ha":1103,"x_min":132,"x_max":971,"o":"m 457 813 l 457 1053 q 445 1083 457 1071 q 415 1096 433 1096 l 175 1096 q 144 1083 157 1096 q 132 1053 132 1071 l 132 813 q 144 783 132 794 q 175 771 157 771 l 415 771 q 445 783 433 771 q 457 813 457 794 m 971 804 l 971 925 q 958 955 971 943 q 928 967 946 967 l 810 967 q 779 955 792 967 q 767 925 767 943 l 767 847 l 679 847 q 650 835 663 847 q 638 804 638 822 l 638 718 l 551 718 q 522 706 535 718 q 510 676 510 694 l 510 589 l 424 589 q 394 576 406 589 q 382 547 382 564 l 382 461 l 294 461 q 265 449 278 461 q 253 419 253 436 l 253 332 l 175 332 q 144 320 157 332 q 132 290 132 308 l 132 169 q 144 140 132 153 q 175 128 157 128 l 294 128 q 325 140 313 128 q 338 169 338 153 l 338 249 l 424 249 q 453 261 440 249 q 465 290 465 274 l 465 376 l 551 376 q 581 389 568 376 q 593 419 593 401 l 593 506 l 679 506 q 709 517 697 506 q 721 547 721 529 l 721 635 l 810 635 q 839 647 826 635 q 851 676 851 660 l 851 763 l 928 763 q 958 775 946 763 q 971 804 971 788 m 971 42 l 971 283 q 958 313 971 300 q 928 325 946 325 l 689 325 q 659 313 671 325 q 647 283 647 300 l 647 42 q 659 13 647 25 q 689 0 671 0 l 928 0 q 958 13 946 0 q 971 42 971 25 m 365 881 q 347 863 365 863 l 242 863 q 224 881 224 863 l 224 986 q 242 1004 224 1004 l 347 1004 q 365 986 365 1004 l 365 881 m 890 117 q 872 99 890 99 l 767 99 q 749 117 749 99 l 749 222 q 767 240 749 240 l 872 240 q 890 222 890 240 l 890 117 z "},"&":{"ha":1103,"x_min":132,"x_max":971,"o":"m 175 975 q 144 963 157 975 q 132 933 132 950 l 132 629 q 144 599 132 611 q 175 586 157 586 l 253 586 l 253 531 l 175 531 q 144 518 157 531 q 132 489 132 506 l 132 169 q 144 140 132 153 q 175 128 157 128 l 261 128 l 261 42 q 273 13 261 25 q 303 0 285 0 l 679 0 q 709 13 697 0 q 721 42 721 25 l 721 121 l 775 121 l 775 42 q 788 13 775 25 q 817 0 800 0 l 928 0 q 958 13 946 0 q 971 42 971 25 l 971 154 q 958 185 971 172 q 928 197 946 197 l 851 197 l 851 249 l 928 249 q 944 263 936 249 q 958 295 953 276 q 967 333 964 314 q 971 360 971 351 l 971 481 q 958 510 971 499 q 928 522 946 522 l 810 522 q 779 510 792 522 q 767 481 767 499 l 767 401 l 714 401 l 714 481 q 701 510 714 499 q 672 522 689 522 l 593 522 l 593 579 l 672 579 q 701 592 689 579 q 714 621 714 604 l 714 925 q 701 955 714 943 q 672 967 689 967 l 586 967 l 586 1053 q 574 1083 586 1071 q 544 1096 561 1096 l 294 1096 q 265 1083 278 1096 q 253 1053 253 1071 l 253 975 l 175 975 m 338 204 l 338 446 l 517 446 l 517 368 q 517 341 517 360 q 520 303 518 322 q 527 271 522 285 q 540 257 532 257 l 638 257 l 638 204 l 338 204 m 338 663 l 338 892 l 510 892 l 510 663 l 338 663 z "},"'":{"ha":963,"x_min":126,"x_max":836,"o":"m 168 582 q 139 569 151 582 q 126 539 126 557 l 126 426 q 139 397 126 410 q 168 385 151 385 l 794 385 q 824 397 811 385 q 836 426 836 410 l 836 539 q 824 569 836 557 q 794 582 811 582 l 168 582 z "},"(":{"ha":681,"x_min":114,"x_max":567,"o":"m 156 846 q 126 833 139 846 q 114 803 114 821 l 114 299 q 126 269 114 281 q 156 257 139 257 l 243 257 l 243 169 q 255 140 243 153 q 285 128 267 128 l 371 128 l 371 42 q 383 13 371 25 q 413 0 396 0 l 525 0 q 554 13 542 0 q 567 42 567 25 l 567 154 q 554 183 567 171 q 525 196 542 196 l 438 196 l 438 282 q 426 311 438 299 q 396 324 414 324 l 318 324 l 318 761 l 406 761 q 435 774 422 761 q 447 803 447 786 l 447 890 l 525 890 q 554 902 542 890 q 567 932 567 914 l 567 1051 q 554 1081 567 1068 q 525 1093 542 1093 l 406 1093 q 375 1081 388 1093 q 363 1051 363 1068 l 363 974 l 276 974 q 247 961 260 974 q 235 932 235 949 l 235 846 l 156 846 z "},")":{"ha":681,"x_min":114,"x_max":567,"o":"m 156 1093 q 126 1081 139 1093 q 114 1051 114 1068 l 114 939 q 126 910 114 922 q 156 897 139 897 l 243 897 l 243 811 q 255 781 243 793 q 285 769 267 769 l 363 769 l 363 332 l 276 332 q 247 320 260 332 q 235 290 235 308 l 235 204 l 156 204 q 126 192 139 204 q 114 163 114 179 l 114 42 q 126 13 114 25 q 156 0 139 0 l 276 0 q 306 13 294 0 q 318 42 318 25 l 318 121 l 406 121 q 435 133 422 121 q 447 163 447 146 l 447 249 l 525 249 q 554 261 542 249 q 567 290 567 274 l 567 794 q 554 824 567 813 q 525 836 542 836 l 438 836 l 438 922 q 426 953 438 940 q 396 965 414 965 l 310 965 l 310 1051 q 297 1081 310 1068 q 268 1093 285 1093 l 156 1093 z "},"*":{"ha":1103,"x_min":132,"x_max":971,"o":"m 303 1076 q 273 1064 285 1076 q 261 1035 261 1051 l 261 924 q 273 893 261 906 q 303 881 285 881 l 382 881 l 382 828 l 175 828 q 144 815 157 828 q 132 786 132 803 l 132 707 q 144 678 132 690 q 175 665 157 665 l 382 665 l 382 613 l 303 613 q 273 601 285 613 q 261 571 261 589 l 261 450 q 273 421 261 433 q 303 408 285 408 l 424 408 q 453 421 440 408 q 465 450 465 433 l 465 529 l 647 529 l 647 450 q 659 421 647 433 q 689 408 671 408 l 800 408 q 830 421 818 408 q 842 450 842 433 l 842 564 q 830 593 842 581 q 800 606 818 606 l 721 606 l 721 657 l 928 657 q 958 669 946 657 q 971 700 971 682 l 971 778 q 958 808 971 796 q 928 821 946 821 l 721 821 l 721 872 l 800 872 q 830 885 818 872 q 842 914 842 897 l 842 1035 q 830 1064 842 1051 q 800 1076 818 1076 l 679 1076 q 650 1064 663 1076 q 638 1035 638 1051 l 638 956 l 457 956 l 457 1035 q 445 1064 457 1051 q 415 1076 433 1076 l 303 1076 z "},"+":{"ha":963,"x_min":126,"x_max":836,"o":"m 589 804 q 576 835 589 822 q 547 847 564 847 l 433 847 q 404 835 417 847 q 392 804 392 822 l 392 582 l 168 582 q 139 569 151 582 q 126 539 126 557 l 126 426 q 139 397 126 410 q 168 385 151 385 l 392 385 l 392 179 q 404 149 392 161 q 433 138 417 138 l 547 138 q 576 149 564 138 q 589 179 589 161 l 589 385 l 794 385 q 824 397 811 385 q 836 426 836 410 l 836 539 q 824 569 836 557 q 794 582 811 582 l 589 582 l 589 804 z "},",":{"ha":415,"x_min":103,"x_max":313,"o":"m 144 318 q 115 306 128 318 q 103 275 103 293 l 103 -103 q 115 -133 103 -121 q 144 -144 128 -144 l 271 -144 q 300 -133 288 -144 q 313 -103 313 -121 l 313 275 q 300 306 313 293 q 271 318 288 318 l 144 318 z "},"-":{"ha":963,"x_min":126,"x_max":836,"o":"m 168 657 q 139 644 151 657 q 126 614 126 632 l 126 501 q 139 472 126 485 q 168 460 151 460 l 794 460 q 824 472 811 460 q 836 501 836 485 l 836 614 q 824 644 836 632 q 794 657 811 657 l 168 657 z "},".":{"ha":540,"x_min":108,"x_max":432,"o":"m 150 324 q 121 311 133 324 q 108 282 108 299 l 108 42 q 121 13 108 25 q 150 0 133 0 l 390 0 q 419 13 407 0 q 432 42 432 25 l 432 282 q 419 311 432 299 q 390 324 407 324 l 150 324 z "},"/":{"ha":1103,"x_min":132,"x_max":971,"o":"m 175 332 q 144 320 157 332 q 132 290 132 308 l 132 169 q 144 140 132 153 q 175 128 157 128 l 294 128 q 325 140 313 128 q 338 169 338 153 l 338 249 l 424 249 q 453 261 440 249 q 465 290 465 274 l 465 376 l 551 376 q 581 389 568 376 q 593 419 593 401 l 593 506 l 679 506 q 709 517 697 506 q 721 547 721 529 l 721 633 l 810 633 q 839 646 826 633 q 851 675 851 658 l 851 763 l 928 763 q 958 775 946 763 q 971 804 971 788 l 971 924 q 958 953 971 942 q 928 965 946 965 l 810 965 q 779 953 792 965 q 767 924 767 942 l 767 847 l 679 847 q 650 835 663 847 q 638 804 638 822 l 638 717 l 551 717 q 522 705 535 717 q 510 675 510 693 l 510 589 l 424 589 q 394 576 406 589 q 382 547 382 564 l 382 461 l 294 461 q 265 449 278 461 q 253 419 253 436 l 253 332 l 175 332 z "},":":{"ha":540,"x_min":108,"x_max":432,"o":"m 150 314 q 121 302 133 314 q 108 272 108 290 l 108 32 q 121 3 108 15 q 150 -10 133 -10 l 390 -10 q 419 3 407 -10 q 432 32 432 15 l 432 272 q 419 302 432 290 q 390 314 407 314 l 150 314 m 150 699 q 121 687 133 699 q 108 657 108 675 l 108 417 q 121 388 108 400 q 150 375 133 375 l 390 375 q 419 388 407 375 q 432 417 432 400 l 432 657 q 419 687 432 675 q 390 699 407 699 l 150 699 z "},";":{"ha":410,"x_min":103,"x_max":307,"o":"m 146 414 q 117 401 129 414 q 104 372 104 389 l 104 35 q 117 6 104 18 q 146 -7 129 -7 l 265 -7 q 294 6 282 -7 q 307 35 307 18 l 307 372 q 294 401 307 389 q 265 414 282 414 l 146 414 m 144 692 q 115 679 128 692 q 103 650 103 667 l 103 531 q 115 501 103 513 q 144 489 128 489 l 264 489 q 293 501 281 489 q 306 531 306 513 l 306 650 q 293 679 306 667 q 264 692 281 692 l 144 692 z "},"<":{"ha":822,"x_min":121,"x_max":701,"o":"m 163 590 q 133 578 144 590 q 121 549 121 565 l 121 428 q 133 399 121 411 q 163 386 144 386 l 249 386 l 249 300 q 261 270 249 282 q 290 258 274 258 l 378 258 l 378 169 q 390 140 378 153 q 419 128 403 128 l 507 128 l 507 42 q 519 13 507 25 q 549 0 531 0 l 660 0 q 690 13 678 0 q 701 42 701 25 l 701 154 q 690 185 701 172 q 660 197 678 197 l 574 197 l 574 283 q 561 313 574 300 q 532 325 549 325 l 446 325 l 446 411 q 433 441 446 429 q 404 453 421 453 l 325 453 l 325 507 l 411 507 q 440 519 428 507 q 453 549 453 531 l 453 635 l 539 635 q 569 647 557 635 q 581 676 581 660 l 581 763 l 660 763 q 690 775 678 763 q 701 804 701 788 l 701 925 q 690 955 701 943 q 660 967 678 967 l 539 967 q 510 955 522 967 q 497 925 497 943 l 497 847 l 411 847 q 382 835 394 847 q 369 804 369 822 l 369 718 l 283 718 q 253 706 265 718 q 242 676 242 694 l 242 590 l 163 590 z "},"=":{"ha":965,"x_min":126,"x_max":839,"o":"m 171 706 q 142 693 154 706 q 129 664 129 681 l 129 551 q 142 521 129 533 q 171 508 154 508 l 797 508 q 826 521 814 508 q 839 551 839 533 l 839 664 q 826 693 839 681 q 797 706 814 706 l 171 706 m 168 464 q 139 452 151 464 q 126 422 126 440 l 126 310 q 139 281 126 293 q 168 268 151 268 l 794 268 q 824 281 811 268 q 836 310 836 293 l 836 422 q 824 452 836 440 q 794 464 811 464 l 168 464 z "},">":{"ha":822,"x_min":121,"x_max":701,"o":"m 163 967 q 133 955 144 967 q 121 925 121 943 l 121 814 q 133 784 121 796 q 163 772 144 772 l 249 772 l 249 685 q 261 654 249 667 q 290 642 274 642 l 378 642 l 378 556 q 390 526 378 539 q 419 514 403 514 l 497 514 l 497 461 l 411 461 q 382 449 394 461 q 369 419 369 436 l 369 332 l 283 332 q 253 320 265 332 q 242 290 242 308 l 242 204 l 163 204 q 133 192 144 204 q 121 163 121 179 l 121 42 q 133 13 121 25 q 163 0 144 0 l 283 0 q 313 13 300 0 q 325 42 325 25 l 325 121 l 411 121 q 440 133 428 121 q 453 163 453 146 l 453 249 l 539 249 q 569 261 557 249 q 581 290 581 274 l 581 376 l 660 376 q 690 389 678 376 q 701 419 701 401 l 701 539 q 690 569 701 557 q 660 582 678 582 l 574 582 l 574 669 q 561 699 574 686 q 532 711 549 711 l 446 711 l 446 797 q 433 826 446 814 q 404 839 421 839 l 317 839 l 317 925 q 305 955 317 943 q 275 967 293 967 l 163 967 z "},"?":{"ha":1101,"x_min":132,"x_max":969,"o":"m 764 689 l 764 871 l 328 871 l 328 792 q 315 763 328 775 q 286 750 303 750 l 175 750 q 144 763 157 750 q 132 792 132 775 l 132 906 q 144 935 132 922 q 175 947 157 947 l 261 947 l 261 1033 q 273 1063 261 1050 q 303 1075 285 1075 l 807 1075 q 836 1063 824 1075 q 849 1033 849 1050 l 849 954 l 926 954 q 957 942 944 954 q 969 913 969 929 l 969 664 q 957 634 969 646 q 926 622 944 622 l 840 622 l 840 536 q 828 506 840 518 q 799 493 817 493 l 700 493 l 700 299 q 688 269 700 281 q 658 257 675 257 l 539 257 q 509 269 521 257 q 497 299 497 281 l 497 519 q 509 549 497 536 q 539 561 521 561 l 617 561 l 617 647 q 629 677 617 665 q 660 689 642 689 l 764 689 m 532 196 q 514 189 521 196 q 507 171 507 182 l 507 26 q 514 8 507 15 q 532 1 521 1 l 676 1 q 694 8 688 1 q 701 26 701 15 l 701 171 q 694 189 701 182 q 676 196 688 196 l 532 196 z "},"@":{"ha":1103,"x_min":132,"x_max":971,"o":"m 175 965 q 144 953 157 965 q 132 922 132 940 l 132 288 q 144 258 132 271 q 175 246 157 246 l 261 246 l 261 160 q 273 131 261 143 q 303 118 285 118 l 928 118 q 958 131 946 118 q 971 160 971 143 l 971 272 q 958 303 971 290 q 928 315 946 315 l 338 315 l 338 881 l 767 881 l 767 836 l 551 836 q 522 824 535 836 q 510 794 510 813 l 510 707 l 431 707 q 401 694 414 707 q 389 665 389 682 l 389 544 q 401 515 389 528 q 431 503 414 503 l 517 503 l 517 417 q 529 387 517 399 q 558 375 542 375 l 810 375 q 839 387 826 375 q 851 417 851 399 l 851 494 l 928 494 q 958 507 946 494 q 971 538 971 519 l 971 914 q 958 943 971 931 q 928 956 946 956 l 842 956 l 842 1043 q 830 1073 842 1061 q 800 1085 818 1085 l 294 1085 q 265 1073 278 1085 q 253 1043 253 1061 l 253 965 l 175 965 m 593 615 l 758 615 l 758 579 l 593 579 l 593 615 z "},"A":{"ha":1103,"x_min":132,"x_max":971,"o":"m 175 975 q 144 963 157 975 q 132 933 132 950 l 132 42 q 144 13 132 25 q 175 0 157 0 l 294 0 q 325 13 313 0 q 338 42 338 25 l 338 369 l 767 369 l 767 42 q 779 13 767 25 q 810 0 792 0 l 928 0 q 958 13 946 0 q 971 42 971 25 l 971 925 q 958 955 971 943 q 928 967 946 967 l 842 967 l 842 1053 q 830 1083 842 1071 q 800 1096 818 1096 l 294 1096 q 265 1083 278 1096 q 253 1053 253 1071 l 253 975 l 175 975 m 344 597 l 344 892 l 767 892 l 767 597 l 344 597 z "},"B":{"ha":1103,"x_min":132,"x_max":971,"o":"m 175 204 q 144 192 157 204 q 132 163 132 179 l 132 42 q 144 13 132 25 q 175 0 157 0 l 810 0 q 839 13 826 0 q 851 42 851 25 l 851 121 l 928 121 q 958 133 946 121 q 971 163 971 146 l 971 539 q 958 569 971 557 q 928 582 946 582 l 851 582 l 851 635 l 928 635 q 958 647 946 635 q 971 676 971 660 l 971 925 q 958 955 971 943 q 928 967 946 967 l 842 967 l 842 1053 q 830 1083 842 1071 q 800 1096 818 1096 l 175 1096 q 144 1083 157 1096 q 132 1053 132 1071 l 132 933 q 144 903 132 915 q 175 892 157 892 l 246 892 l 246 204 l 175 204 m 472 213 l 472 506 l 767 506 l 767 213 l 472 213 m 472 726 l 472 892 l 767 892 l 767 726 l 472 726 z "},"C":{"ha":1103,"x_min":132,"x_max":971,"o":"m 175 975 q 144 963 157 975 q 132 933 132 950 l 132 169 q 144 140 132 153 q 175 128 157 128 l 261 128 l 261 42 q 273 13 261 25 q 303 0 285 0 l 810 0 q 839 13 826 0 q 851 42 851 25 l 851 121 l 928 121 q 958 133 946 121 q 971 163 971 146 l 971 283 q 958 313 971 300 q 928 325 946 325 l 810 325 q 779 313 792 325 q 767 283 767 300 l 767 204 l 338 204 l 338 892 l 775 892 l 775 813 q 788 783 775 794 q 817 771 800 771 l 928 771 q 958 783 946 771 q 971 813 971 794 l 971 925 q 958 955 971 943 q 928 967 946 967 l 842 967 l 842 1053 q 830 1083 842 1071 q 800 1096 818 1096 l 294 1096 q 265 1083 278 1096 q 253 1053 253 1071 l 253 975 l 175 975 z "},"D":{"ha":1103,"x_min":132,"x_max":971,"o":"m 175 204 q 144 192 157 204 q 132 163 132 179 l 132 42 q 144 13 132 25 q 175 0 157 0 l 810 0 q 839 13 826 0 q 851 42 851 25 l 851 121 l 928 121 q 958 133 946 121 q 971 163 971 146 l 971 925 q 958 955 971 943 q 928 967 946 967 l 842 967 l 842 1053 q 830 1083 842 1071 q 800 1096 818 1096 l 175 1096 q 144 1083 157 1096 q 132 1053 132 1071 l 132 933 q 144 903 132 915 q 175 892 157 892 l 246 892 l 246 204 l 175 204 m 472 213 l 472 892 l 767 892 l 767 213 l 472 213 z "},"E":{"ha":1103,"x_min":132,"x_max":971,"o":"m 175 1096 q 144 1083 157 1096 q 132 1053 132 1071 l 132 42 q 144 13 132 25 q 175 0 157 0 l 928 0 q 958 13 946 0 q 971 42 971 25 l 971 163 q 958 192 971 179 q 928 204 946 204 l 344 204 l 344 506 l 811 506 q 840 517 828 506 q 853 547 853 529 l 853 676 q 840 706 853 694 q 811 718 828 718 l 344 718 l 344 892 l 928 892 q 958 903 946 892 q 971 933 971 915 l 971 1053 q 958 1083 971 1071 q 928 1096 946 1096 l 175 1096 z "},"F":{"ha":1103,"x_min":132,"x_max":971,"o":"m 175 1096 q 144 1083 157 1096 q 132 1053 132 1071 l 132 42 q 144 13 132 25 q 175 0 157 0 l 294 0 q 325 13 313 0 q 338 42 338 25 l 338 506 l 811 506 q 840 517 828 506 q 853 547 853 529 l 853 676 q 840 706 853 694 q 811 718 828 718 l 344 718 l 344 892 l 928 892 q 958 903 946 892 q 971 933 971 915 l 971 1053 q 958 1083 971 1071 q 928 1096 946 1096 l 175 1096 z "},"G":{"ha":1103,"x_min":132,"x_max":971,"o":"m 175 975 q 144 963 157 975 q 132 933 132 950 l 132 169 q 144 140 132 153 q 175 128 157 128 l 261 128 l 261 42 q 273 13 261 25 q 303 0 285 0 l 810 0 q 839 13 826 0 q 851 42 851 25 l 851 121 l 928 121 q 958 133 946 121 q 971 163 971 146 l 971 539 q 958 569 971 557 q 928 582 946 582 l 558 582 q 529 569 542 582 q 517 539 517 557 l 517 419 q 529 389 517 401 q 558 376 542 376 l 758 376 l 758 204 l 338 204 l 338 892 l 775 892 l 775 743 q 788 713 775 725 q 817 701 800 701 l 928 701 q 958 713 946 701 q 971 743 971 725 l 971 925 q 958 955 971 943 q 928 967 946 967 l 842 967 l 842 1053 q 830 1083 842 1071 q 800 1096 818 1096 l 294 1096 q 265 1083 278 1096 q 253 1053 253 1071 l 253 975 l 175 975 z "},"H":{"ha":1103,"x_min":132,"x_max":971,"o":"m 175 1096 q 144 1083 157 1096 q 132 1053 132 1071 l 132 42 q 144 13 132 25 q 175 0 157 0 l 294 0 q 325 13 313 0 q 338 42 338 25 l 338 497 l 767 497 l 767 42 q 779 13 767 25 q 810 0 792 0 l 928 0 q 958 13 946 0 q 971 42 971 25 l 971 1053 q 958 1083 971 1071 q 928 1096 946 1096 l 810 1096 q 779 1083 792 1096 q 767 1053 767 1071 l 767 726 l 338 726 l 338 1053 q 325 1083 338 1071 q 294 1096 313 1096 l 175 1096 z "},"I":{"ha":963,"x_min":126,"x_max":836,"o":"m 168 204 q 139 192 151 204 q 126 163 126 179 l 126 42 q 139 13 126 25 q 168 0 151 0 l 794 0 q 824 13 811 0 q 836 42 836 25 l 836 163 q 824 192 836 179 q 794 204 811 204 l 596 204 l 596 892 l 794 892 q 824 903 811 892 q 836 933 836 915 l 836 1053 q 824 1083 836 1071 q 794 1096 811 1096 l 168 1096 q 139 1083 151 1096 q 126 1053 126 1071 l 126 933 q 139 903 126 915 q 168 892 151 892 l 368 892 l 368 204 l 168 204 z "},"J":{"ha":1103,"x_min":132,"x_max":971,"o":"m 175 453 q 144 441 157 453 q 132 411 132 429 l 132 169 q 144 140 132 153 q 175 128 157 128 l 261 128 l 261 42 q 273 13 261 25 q 303 0 285 0 l 810 0 q 839 13 826 0 q 851 42 851 25 l 851 121 l 928 121 q 958 133 946 121 q 971 163 971 146 l 971 1053 q 958 1083 971 1071 q 928 1096 946 1096 l 810 1096 q 779 1083 792 1096 q 767 1053 767 1071 l 767 204 l 329 204 l 329 411 q 317 441 329 429 q 288 453 304 453 l 175 453 z "},"K":{"ha":1103,"x_min":132,"x_max":971,"o":"m 175 1096 q 144 1083 157 1096 q 132 1053 132 1071 l 132 42 q 144 13 132 25 q 175 0 157 0 l 294 0 q 325 13 313 0 q 338 42 338 25 l 338 506 l 389 506 l 389 426 q 401 397 389 410 q 431 385 414 385 l 517 385 l 517 299 q 529 269 517 281 q 558 257 542 257 l 647 257 l 647 169 q 659 140 647 153 q 689 128 671 128 l 775 128 l 775 42 q 788 13 775 25 q 817 0 800 0 l 928 0 q 958 13 946 0 q 971 42 971 25 l 971 154 q 958 185 971 172 q 928 197 946 197 l 842 197 l 842 283 q 830 313 842 300 q 800 325 818 325 l 714 325 l 714 411 q 701 441 714 429 q 672 453 689 453 l 586 453 l 586 539 q 574 569 586 557 q 544 582 561 582 l 465 582 l 465 635 l 551 635 q 581 647 568 635 q 593 676 593 660 l 593 763 l 679 763 q 709 775 697 763 q 721 804 721 788 l 721 892 l 800 892 q 830 903 818 892 q 842 933 842 915 l 842 1053 q 830 1083 842 1071 q 800 1096 818 1096 l 679 1096 q 650 1083 663 1096 q 638 1053 638 1071 l 638 975 l 551 975 q 522 963 535 975 q 510 933 510 950 l 510 847 l 424 847 q 394 835 406 847 q 382 804 382 822 l 382 726 l 338 726 l 338 1053 q 325 1083 338 1071 q 294 1096 313 1096 l 175 1096 z "},"L":{"ha":963,"x_min":126,"x_max":836,"o":"m 168 1096 q 139 1083 151 1096 q 126 1053 126 1071 l 126 42 q 139 13 126 25 q 168 0 151 0 l 794 0 q 824 13 811 0 q 836 42 836 25 l 836 163 q 824 192 836 179 q 794 204 811 204 l 331 204 l 331 1053 q 318 1083 331 1071 q 289 1096 306 1096 l 168 1096 z "},"M":{"ha":1103,"x_min":132,"x_max":971,"o":"m 767 754 l 767 42 q 779 13 767 25 q 810 0 792 0 l 928 0 q 958 13 946 0 q 971 42 971 25 l 971 1053 q 958 1083 971 1071 q 928 1096 946 1096 l 810 1096 q 779 1083 792 1096 q 767 1053 767 1071 l 767 975 l 679 975 q 650 963 663 975 q 638 933 638 950 l 638 847 l 457 847 l 457 933 q 445 963 457 950 q 415 975 433 975 l 338 975 l 338 1053 q 325 1083 338 1071 q 294 1096 313 1096 l 175 1096 q 144 1083 157 1096 q 132 1053 132 1071 l 132 42 q 144 13 132 25 q 175 0 157 0 l 294 0 q 325 13 313 0 q 338 42 338 25 l 338 763 l 389 763 l 389 685 q 401 654 389 667 q 431 642 414 642 l 679 642 q 709 654 697 642 q 721 685 721 667 l 721 754 l 767 754 z "},"N":{"ha":1103,"x_min":132,"x_max":971,"o":"m 767 376 l 767 42 q 779 13 767 25 q 810 0 792 0 l 928 0 q 958 13 946 0 q 971 42 971 25 l 971 1053 q 958 1083 971 1071 q 928 1096 946 1096 l 810 1096 q 779 1083 792 1096 q 767 1053 767 1071 l 767 589 l 714 589 l 714 668 q 701 697 714 685 q 672 710 689 710 l 586 710 l 586 796 q 574 825 586 813 q 544 838 561 838 l 457 838 l 457 933 q 445 963 457 950 q 415 975 433 975 l 338 975 l 338 1053 q 325 1083 338 1071 q 294 1096 313 1096 l 175 1096 q 144 1083 157 1096 q 132 1053 132 1071 l 132 42 q 144 13 132 25 q 175 0 157 0 l 294 0 q 325 13 313 0 q 338 42 338 25 l 338 763 l 389 763 l 389 685 q 401 654 389 667 q 431 642 414 642 l 517 642 l 517 556 q 529 526 517 539 q 558 514 542 514 l 647 514 l 647 419 q 659 389 647 401 q 689 376 671 376 l 767 376 z "},"O":{"ha":1103,"x_min":132,"x_max":971,"o":"m 175 1096 q 144 1083 157 1096 q 132 1053 132 1071 l 132 42 q 144 13 132 25 q 175 0 157 0 l 928 0 q 958 13 946 0 q 971 42 971 25 l 971 1053 q 958 1083 971 1071 q 928 1096 946 1096 l 175 1096 m 344 883 l 758 883 l 758 213 l 344 213 l 344 883 z "},"P":{"ha":1103,"x_min":132,"x_max":971,"o":"m 175 1096 q 144 1083 157 1096 q 132 1053 132 1071 l 132 42 q 144 13 132 25 q 175 0 157 0 l 294 0 q 325 13 313 0 q 338 42 338 25 l 338 376 l 810 376 q 839 389 826 376 q 851 419 851 401 l 851 506 l 928 506 q 958 517 946 506 q 971 547 971 529 l 971 925 q 958 955 971 943 q 928 967 946 967 l 842 967 l 842 1053 q 830 1083 842 1071 q 800 1096 818 1096 l 175 1096 m 344 597 l 344 892 l 767 892 l 767 597 l 344 597 z "},"Q":{"ha":1103,"x_min":132,"x_max":1100,"o":"m 344 883 l 758 883 l 758 46 l 568 46 l 568 214 l 344 213 l 344 883 m 971 46 l 971 1053 q 958 1083 971 1071 q 928 1096 946 1096 l 175 1096 q 144 1083 157 1096 q 132 1053 132 1071 l 132 42 q 144 13 132 25 q 175 0 157 0 l 390 0 l 390 -110 q 403 -139 390 -126 q 432 -151 415 -151 l 1058 -151 q 1088 -139 1075 -151 q 1100 -110 1100 -126 l 1100 3 q 1088 33 1100 21 q 1058 46 1075 46 l 971 46 z "},"R":{"ha":1103,"x_min":132,"x_max":971,"o":"m 175 1096 q 144 1083 157 1096 q 132 1053 132 1071 l 132 42 q 144 13 132 25 q 175 0 157 0 l 294 0 q 325 13 313 0 q 338 42 338 25 l 338 369 l 510 369 l 510 299 q 522 269 510 281 q 551 257 535 257 l 647 257 l 647 169 q 659 140 647 153 q 689 128 671 128 l 775 128 l 775 42 q 788 13 775 25 q 817 0 800 0 l 928 0 q 958 13 946 0 q 971 42 971 25 l 971 154 q 958 185 971 172 q 928 197 946 197 l 842 197 l 842 283 q 830 313 842 300 q 800 325 818 325 l 721 325 l 721 376 l 810 376 q 839 389 826 376 q 851 419 851 401 l 851 506 l 928 506 q 958 517 946 506 q 971 547 971 529 l 971 925 q 958 955 971 943 q 928 967 946 967 l 842 967 l 842 1053 q 830 1083 842 1071 q 800 1096 818 1096 l 175 1096 m 344 597 l 344 892 l 767 892 l 767 597 l 344 597 z "},"S":{"ha":1103,"x_min":132,"x_max":971,"o":"m 175 975 q 144 963 157 975 q 132 933 132 950 l 132 685 q 144 654 132 667 q 175 642 157 642 l 261 642 l 261 556 q 273 526 261 539 q 303 514 285 514 l 767 514 l 767 204 l 329 204 l 329 283 q 317 313 329 300 q 288 325 304 325 l 175 325 q 144 313 157 325 q 132 283 132 300 l 132 169 q 144 140 132 153 q 175 128 157 128 l 261 128 l 261 42 q 273 13 261 25 q 303 0 285 0 l 810 0 q 839 13 826 0 q 851 42 851 25 l 851 121 l 928 121 q 958 133 946 121 q 971 163 971 146 l 971 539 q 958 569 971 557 q 928 582 946 582 l 842 582 l 842 668 q 830 697 842 685 q 800 710 818 710 l 338 710 l 338 892 l 775 892 l 775 813 q 788 783 775 794 q 817 771 800 771 l 928 771 q 958 783 946 771 q 971 813 971 794 l 971 925 q 958 955 971 943 q 928 967 946 967 l 842 967 l 842 1053 q 830 1083 842 1071 q 800 1096 818 1096 l 294 1096 q 265 1083 278 1096 q 253 1053 253 1071 l 253 975 l 175 975 z "},"T":{"ha":963,"x_min":126,"x_max":836,"o":"m 375 892 l 375 42 q 388 13 375 25 q 417 0 400 0 l 546 0 q 575 13 563 0 q 588 42 588 25 l 588 892 l 794 892 q 824 903 811 892 q 836 933 836 915 l 836 1053 q 824 1083 836 1071 q 794 1096 811 1096 l 168 1096 q 139 1083 151 1096 q 126 1053 126 1071 l 126 933 q 139 903 126 915 q 168 892 151 892 l 375 892 z "},"U":{"ha":1103,"x_min":132,"x_max":971,"o":"m 175 1096 q 144 1083 157 1096 q 132 1053 132 1071 l 132 169 q 144 140 132 153 q 175 128 157 128 l 261 128 l 261 42 q 273 13 261 25 q 303 0 285 0 l 810 0 q 839 13 826 0 q 851 42 851 25 l 851 121 l 928 121 q 958 133 946 121 q 971 163 971 146 l 971 1053 q 958 1083 971 1071 q 928 1096 946 1096 l 810 1096 q 779 1083 792 1096 q 767 1053 767 1071 l 767 204 l 329 204 l 329 1053 q 317 1083 329 1071 q 288 1096 304 1096 l 175 1096 z "},"V":{"ha":963,"x_min":126,"x_max":836,"o":"m 168 1096 q 139 1083 151 1096 q 126 1053 126 1071 l 126 556 q 139 526 126 539 q 168 514 151 514 l 254 514 l 254 299 q 267 269 254 281 q 296 257 279 257 l 383 257 l 383 42 q 395 13 383 25 q 425 0 407 0 l 546 0 q 575 13 563 0 q 588 42 588 25 l 588 249 l 674 249 q 703 261 690 249 q 715 290 715 274 l 715 506 l 794 506 q 824 517 811 506 q 836 547 836 529 l 836 1053 q 824 1083 836 1071 q 794 1096 811 1096 l 674 1096 q 644 1083 656 1096 q 632 1053 632 1071 l 632 589 l 546 589 q 515 576 528 589 q 503 547 503 564 l 503 332 l 451 332 l 451 539 q 439 569 451 557 q 410 582 426 582 l 324 582 l 324 1053 q 311 1083 324 1071 q 282 1096 299 1096 l 168 1096 z "},"W":{"ha":1103,"x_min":132,"x_max":971,"o":"m 767 121 l 767 42 q 779 13 767 25 q 810 0 792 0 l 928 0 q 958 13 946 0 q 971 42 971 25 l 971 1053 q 958 1083 971 1071 q 928 1096 946 1096 l 810 1096 q 779 1083 792 1096 q 767 1053 767 1071 l 767 332 l 714 332 l 714 411 q 701 441 714 429 q 672 453 689 453 l 424 453 q 394 441 406 453 q 382 411 382 429 l 382 340 l 338 340 l 338 1053 q 325 1083 338 1071 q 294 1096 313 1096 l 175 1096 q 144 1083 157 1096 q 132 1053 132 1071 l 132 42 q 144 13 132 25 q 175 0 157 0 l 294 0 q 325 13 313 0 q 338 42 338 25 l 338 121 l 424 121 q 453 133 440 121 q 465 163 465 146 l 465 249 l 647 249 l 647 163 q 659 133 647 146 q 689 121 671 121 l 767 121 z "},"X":{"ha":1103,"x_min":132,"x_max":971,"o":"m 175 1096 q 144 1083 157 1096 q 132 1053 132 1071 l 132 813 q 144 783 132 794 q 175 771 157 771 l 261 771 l 261 685 q 273 654 261 667 q 303 642 285 642 l 382 642 l 382 461 l 294 461 q 265 449 278 461 q 253 419 253 436 l 253 332 l 175 332 q 144 320 157 332 q 132 290 132 308 l 132 42 q 144 13 132 25 q 175 0 157 0 l 294 0 q 325 13 313 0 q 338 42 338 25 l 338 249 l 424 249 q 453 261 440 249 q 465 290 465 274 l 465 376 l 647 376 l 647 299 q 659 269 647 281 q 689 257 671 257 l 775 257 l 775 42 q 788 13 775 25 q 817 0 800 0 l 928 0 q 958 13 946 0 q 971 42 971 25 l 971 283 q 958 313 971 300 q 928 325 946 325 l 842 325 l 842 411 q 830 441 842 429 q 800 453 818 453 l 721 453 l 721 635 l 810 635 q 839 647 826 635 q 851 676 851 660 l 851 763 l 928 763 q 958 775 946 763 q 971 804 971 788 l 971 1053 q 958 1083 971 1071 q 928 1096 946 1096 l 810 1096 q 779 1083 792 1096 q 767 1053 767 1071 l 767 847 l 679 847 q 650 835 663 847 q 638 804 638 822 l 638 718 l 457 718 l 457 796 q 445 825 457 813 q 415 838 433 838 l 329 838 l 329 1053 q 317 1083 329 1071 q 288 1096 304 1096 l 175 1096 z "},"Y":{"ha":963,"x_min":126,"x_max":836,"o":"m 168 1096 q 139 1083 151 1096 q 126 1053 126 1071 l 126 532 q 139 501 126 514 q 168 489 151 489 l 254 489 l 254 403 q 267 374 254 386 q 296 361 279 361 l 383 361 l 383 42 q 395 13 383 25 q 425 0 407 0 l 546 0 q 575 13 563 0 q 588 42 588 25 l 588 353 l 674 353 q 703 365 690 353 q 715 394 715 376 l 715 482 l 794 482 q 824 494 811 482 q 836 524 836 507 l 836 1053 q 824 1083 836 1071 q 794 1096 811 1096 l 674 1096 q 644 1083 656 1096 q 632 1053 632 1071 l 632 565 l 546 565 q 515 553 528 565 q 503 524 503 542 l 503 436 l 451 436 l 451 515 q 439 544 451 532 q 410 557 426 557 l 324 557 l 324 1053 q 311 1083 324 1071 q 282 1096 299 1096 l 168 1096 z "},"Z":{"ha":1103,"x_min":132,"x_max":971,"o":"m 175 332 q 144 320 157 332 q 132 290 132 308 l 132 42 q 144 13 132 25 q 175 0 157 0 l 928 0 q 958 13 946 0 q 971 42 971 25 l 971 163 q 958 192 971 179 q 928 204 946 204 l 344 204 l 344 249 l 424 249 q 453 261 440 249 q 465 290 465 274 l 465 376 l 551 376 q 581 389 568 376 q 593 419 593 401 l 593 506 l 679 506 q 709 517 697 506 q 721 547 721 529 l 721 635 l 810 635 q 839 647 826 635 q 851 676 851 660 l 851 763 l 928 763 q 958 775 946 763 q 971 804 971 788 l 971 1053 q 958 1083 971 1071 q 928 1096 946 1096 l 175 1096 q 144 1083 157 1096 q 132 1053 132 1071 l 132 933 q 144 903 132 915 q 175 892 157 892 l 758 892 l 758 847 l 679 847 q 650 835 663 847 q 638 804 638 822 l 638 718 l 551 718 q 522 706 535 718 q 510 676 510 694 l 510 589 l 424 589 q 394 576 406 589 q 382 547 382 564 l 382 461 l 294 461 q 265 449 278 461 q 253 419 253 436 l 253 332 l 175 332 z "},"\\":{"ha":1103,"x_min":132,"x_max":971,"o":"m 928 332 q 958 320 946 332 q 971 290 971 308 l 971 169 q 958 140 971 153 q 928 128 946 128 l 808 128 q 778 140 790 128 q 765 169 765 153 l 765 249 l 679 249 q 650 261 663 249 q 638 290 638 274 l 638 376 l 551 376 q 522 389 535 376 q 510 419 510 401 l 510 506 l 424 506 q 394 517 406 506 q 382 547 382 529 l 382 633 l 293 633 q 264 646 276 633 q 251 675 251 658 l 251 763 l 175 763 q 144 775 157 763 q 132 804 132 788 l 132 924 q 144 953 132 942 q 175 965 157 965 l 293 965 q 324 953 311 965 q 336 924 336 942 l 336 847 l 424 847 q 453 835 440 847 q 465 804 465 822 l 465 717 l 551 717 q 581 705 568 717 q 593 675 593 693 l 593 589 l 679 589 q 709 576 697 589 q 721 547 721 564 l 721 461 l 808 461 q 838 449 825 461 q 850 419 850 436 l 850 332 l 928 332 z "},"^":{"ha":1244,"x_min":139,"x_max":1106,"o":"m 181 718 q 151 706 164 718 q 139 676 139 694 l 139 556 q 151 526 139 539 q 181 514 164 514 l 301 514 q 331 526 318 514 q 343 556 343 539 l 343 635 l 429 635 q 459 647 447 635 q 471 676 471 660 l 471 763 l 558 763 q 588 775 576 763 q 600 804 600 788 l 600 892 l 653 892 l 653 814 q 665 784 653 796 q 694 772 678 772 l 781 772 l 781 685 q 793 654 781 667 q 822 642 806 642 l 910 642 l 910 556 q 922 526 910 539 q 953 514 935 514 l 1064 514 q 1093 526 1081 514 q 1106 556 1106 539 l 1106 669 q 1093 699 1106 686 q 1064 711 1081 711 l 978 711 l 978 797 q 965 826 978 814 q 936 839 953 839 l 850 839 l 850 925 q 838 955 850 943 q 807 967 825 967 l 719 967 l 719 1053 q 708 1083 719 1071 q 678 1096 696 1096 l 558 1096 q 529 1083 542 1096 q 517 1053 517 1071 l 517 976 l 429 976 q 400 964 413 976 q 388 935 388 951 l 388 847 l 301 847 q 272 835 283 847 q 260 804 260 822 l 260 718 l 181 718 z "},"_":{"ha":774,"x_min":-32,"x_max":807,"o":"m 11 -132 q -19 -144 -7 -132 q -32 -175 -32 -157 l -32 -287 q -19 -317 -32 -304 q 11 -329 -7 -329 l 764 -329 q 794 -317 782 -329 q 807 -287 807 -304 l 807 -175 q 794 -144 807 -157 q 764 -132 782 -132 l 11 -132 z "},"a":{"ha":1103,"x_min":132,"x_max":971,"o":"m 175 975 q 144 963 157 975 q 132 933 132 950 l 132 42 q 144 13 132 25 q 175 0 157 0 l 294 0 q 325 13 313 0 q 338 42 338 25 l 338 369 l 767 369 l 767 42 q 779 13 767 25 q 810 0 792 0 l 928 0 q 958 13 946 0 q 971 42 971 25 l 971 925 q 958 955 971 943 q 928 967 946 967 l 842 967 l 842 1053 q 830 1083 842 1071 q 800 1096 818 1096 l 294 1096 q 265 1083 278 1096 q 253 1053 253 1071 l 253 975 l 175 975 m 344 597 l 344 892 l 767 892 l 767 597 l 344 597 z "},"b":{"ha":1103,"x_min":132,"x_max":971,"o":"m 175 204 q 144 192 157 204 q 132 163 132 179 l 132 42 q 144 13 132 25 q 175 0 157 0 l 810 0 q 839 13 826 0 q 851 42 851 25 l 851 121 l 928 121 q 958 133 946 121 q 971 163 971 146 l 971 539 q 958 569 971 557 q 928 582 946 582 l 851 582 l 851 635 l 928 635 q 958 647 946 635 q 971 676 971 660 l 971 925 q 958 955 971 943 q 928 967 946 967 l 842 967 l 842 1053 q 830 1083 842 1071 q 800 1096 818 1096 l 175 1096 q 144 1083 157 1096 q 132 1053 132 1071 l 132 933 q 144 903 132 915 q 175 892 157 892 l 246 892 l 246 204 l 175 204 m 472 213 l 472 506 l 767 506 l 767 213 l 472 213 m 472 726 l 472 892 l 767 892 l 767 726 l 472 726 z "},"c":{"ha":1103,"x_min":132,"x_max":971,"o":"m 175 975 q 144 963 157 975 q 132 933 132 950 l 132 169 q 144 140 132 153 q 175 128 157 128 l 261 128 l 261 42 q 273 13 261 25 q 303 0 285 0 l 810 0 q 839 13 826 0 q 851 42 851 25 l 851 121 l 928 121 q 958 133 946 121 q 971 163 971 146 l 971 283 q 958 313 971 300 q 928 325 946 325 l 810 325 q 779 313 792 325 q 767 283 767 300 l 767 204 l 338 204 l 338 892 l 775 892 l 775 813 q 788 783 775 794 q 817 771 800 771 l 928 771 q 958 783 946 771 q 971 813 971 794 l 971 925 q 958 955 971 943 q 928 967 946 967 l 842 967 l 842 1053 q 830 1083 842 1071 q 800 1096 818 1096 l 294 1096 q 265 1083 278 1096 q 253 1053 253 1071 l 253 975 l 175 975 z "},"d":{"ha":1103,"x_min":132,"x_max":971,"o":"m 175 204 q 144 192 157 204 q 132 163 132 179 l 132 42 q 144 13 132 25 q 175 0 157 0 l 810 0 q 839 13 826 0 q 851 42 851 25 l 851 121 l 928 121 q 958 133 946 121 q 971 163 971 146 l 971 925 q 958 955 971 943 q 928 967 946 967 l 842 967 l 842 1053 q 830 1083 842 1071 q 800 1096 818 1096 l 175 1096 q 144 1083 157 1096 q 132 1053 132 1071 l 132 933 q 144 903 132 915 q 175 892 157 892 l 246 892 l 246 204 l 175 204 m 472 213 l 472 892 l 767 892 l 767 213 l 472 213 z "},"e":{"ha":1103,"x_min":132,"x_max":971,"o":"m 175 1096 q 144 1083 157 1096 q 132 1053 132 1071 l 132 42 q 144 13 132 25 q 175 0 157 0 l 928 0 q 958 13 946 0 q 971 42 971 25 l 971 163 q 958 192 971 179 q 928 204 946 204 l 344 204 l 344 464 l 672 464 q 701 476 689 464 q 714 506 714 488 l 714 635 q 701 665 714 653 q 672 676 689 676 l 344 676 l 344 892 l 928 892 q 958 903 946 892 q 971 933 971 915 l 971 1053 q 958 1083 971 1071 q 928 1096 946 1096 l 175 1096 z "},"f":{"ha":1103,"x_min":132,"x_max":971,"o":"m 175 1096 q 144 1083 157 1096 q 132 1053 132 1071 l 132 42 q 144 13 132 25 q 175 0 157 0 l 294 0 q 325 13 313 0 q 338 42 338 25 l 338 464 l 672 464 q 701 476 689 464 q 714 506 714 488 l 714 635 q 701 665 714 653 q 672 676 689 676 l 344 676 l 344 892 l 928 892 q 958 903 946 892 q 971 933 971 915 l 971 1053 q 958 1083 971 1071 q 928 1096 946 1096 l 175 1096 z "},"g":{"ha":1103,"x_min":132,"x_max":971,"o":"m 175 975 q 144 963 157 975 q 132 933 132 950 l 132 169 q 144 140 132 153 q 175 128 157 128 l 261 128 l 261 42 q 273 13 261 25 q 303 0 285 0 l 810 0 q 839 13 826 0 q 851 42 851 25 l 851 121 l 928 121 q 958 133 946 121 q 971 163 971 146 l 971 539 q 958 569 971 557 q 928 582 946 582 l 558 582 q 529 569 542 582 q 517 539 517 557 l 517 419 q 529 389 517 401 q 558 376 542 376 l 758 376 l 758 204 l 338 204 l 338 892 l 775 892 l 775 813 q 788 783 775 794 q 817 771 800 771 l 928 771 q 958 783 946 771 q 971 813 971 794 l 971 925 q 958 955 971 943 q 928 967 946 967 l 842 967 l 842 1053 q 830 1083 842 1071 q 800 1096 818 1096 l 294 1096 q 265 1083 278 1096 q 253 1053 253 1071 l 253 975 l 175 975 z "},"h":{"ha":1103,"x_min":132,"x_max":971,"o":"m 175 1096 q 144 1083 157 1096 q 132 1053 132 1071 l 132 42 q 144 13 132 25 q 175 0 157 0 l 294 0 q 325 13 313 0 q 338 42 338 25 l 338 497 l 767 497 l 767 42 q 779 13 767 25 q 810 0 792 0 l 928 0 q 958 13 946 0 q 971 42 971 25 l 971 1053 q 958 1083 971 1071 q 928 1096 946 1096 l 810 1096 q 779 1083 792 1096 q 767 1053 767 1071 l 767 726 l 338 726 l 338 1053 q 325 1083 338 1071 q 294 1096 313 1096 l 175 1096 z "},"i":{"ha":963,"x_min":126,"x_max":836,"o":"m 168 204 q 139 192 151 204 q 126 163 126 179 l 126 42 q 139 13 126 25 q 168 0 151 0 l 794 0 q 824 13 811 0 q 836 42 836 25 l 836 163 q 824 192 836 179 q 794 204 811 204 l 596 204 l 596 892 l 794 892 q 824 903 811 892 q 836 933 836 915 l 836 1053 q 824 1083 836 1071 q 794 1096 811 1096 l 168 1096 q 139 1083 151 1096 q 126 1053 126 1071 l 126 933 q 139 903 126 915 q 168 892 151 892 l 368 892 l 368 204 l 168 204 z "},"j":{"ha":1103,"x_min":132,"x_max":971,"o":"m 175 453 q 144 441 157 453 q 132 411 132 429 l 132 169 q 144 140 132 153 q 175 128 157 128 l 261 128 l 261 42 q 273 13 261 25 q 303 0 285 0 l 810 0 q 839 13 826 0 q 851 42 851 25 l 851 121 l 928 121 q 958 133 946 121 q 971 163 971 146 l 971 1053 q 958 1083 971 1071 q 928 1096 946 1096 l 810 1096 q 779 1083 792 1096 q 767 1053 767 1071 l 767 204 l 329 204 l 329 411 q 317 441 329 429 q 288 453 304 453 l 175 453 z "},"k":{"ha":1103,"x_min":132,"x_max":971,"o":"m 175 1096 q 144 1083 157 1096 q 132 1053 132 1071 l 132 42 q 144 13 132 25 q 175 0 157 0 l 294 0 q 325 13 313 0 q 338 42 338 25 l 338 506 l 389 506 l 389 426 q 401 397 389 410 q 431 385 414 385 l 517 385 l 517 299 q 529 269 517 281 q 558 257 542 257 l 647 257 l 647 169 q 659 140 647 153 q 689 128 671 128 l 775 128 l 775 42 q 788 13 775 25 q 817 0 800 0 l 928 0 q 958 13 946 0 q 971 42 971 25 l 971 154 q 958 185 971 172 q 928 197 946 197 l 842 197 l 842 283 q 830 313 842 300 q 800 325 818 325 l 714 325 l 714 411 q 701 441 714 429 q 672 453 689 453 l 586 453 l 586 539 q 574 569 586 557 q 544 582 561 582 l 465 582 l 465 635 l 551 635 q 581 647 568 635 q 593 676 593 660 l 593 763 l 679 763 q 709 775 697 763 q 721 804 721 788 l 721 892 l 800 892 q 830 903 818 892 q 842 933 842 915 l 842 1053 q 830 1083 842 1071 q 800 1096 818 1096 l 679 1096 q 650 1083 663 1096 q 638 1053 638 1071 l 638 975 l 551 975 q 522 963 535 975 q 510 933 510 950 l 510 847 l 424 847 q 394 835 406 847 q 382 804 382 822 l 382 726 l 338 726 l 338 1053 q 325 1083 338 1071 q 294 1096 313 1096 l 175 1096 z "},"l":{"ha":963,"x_min":126,"x_max":836,"o":"m 168 1096 q 139 1083 151 1096 q 126 1053 126 1071 l 126 42 q 139 13 126 25 q 168 0 151 0 l 794 0 q 824 13 811 0 q 836 42 836 25 l 836 163 q 824 192 836 179 q 794 204 811 204 l 331 204 l 331 1053 q 318 1083 331 1071 q 289 1096 306 1096 l 168 1096 z "},"m":{"ha":1103,"x_min":132,"x_max":971,"o":"m 767 754 l 767 42 q 779 13 767 25 q 810 0 792 0 l 928 0 q 958 13 946 0 q 971 42 971 25 l 971 1053 q 958 1083 971 1071 q 928 1096 946 1096 l 810 1096 q 779 1083 792 1096 q 767 1053 767 1071 l 767 975 l 679 975 q 650 963 663 975 q 638 933 638 950 l 638 847 l 457 847 l 457 933 q 445 963 457 950 q 415 975 433 975 l 338 975 l 338 1053 q 325 1083 338 1071 q 294 1096 313 1096 l 175 1096 q 144 1083 157 1096 q 132 1053 132 1071 l 132 42 q 144 13 132 25 q 175 0 157 0 l 294 0 q 325 13 313 0 q 338 42 338 25 l 338 763 l 389 763 l 389 685 q 401 654 389 667 q 431 642 414 642 l 679 642 q 709 654 697 642 q 721 685 721 667 l 721 754 l 767 754 z "},"n":{"ha":1103,"x_min":132,"x_max":971,"o":"m 767 376 l 767 42 q 779 13 767 25 q 810 0 792 0 l 928 0 q 958 13 946 0 q 971 42 971 25 l 971 1053 q 958 1083 971 1071 q 928 1096 946 1096 l 810 1096 q 779 1083 792 1096 q 767 1053 767 1071 l 767 589 l 714 589 l 714 668 q 701 697 714 685 q 672 710 689 710 l 586 710 l 586 796 q 574 825 586 813 q 544 838 561 838 l 457 838 l 457 933 q 445 963 457 950 q 415 975 433 975 l 338 975 l 338 1053 q 325 1083 338 1071 q 294 1096 313 1096 l 175 1096 q 144 1083 157 1096 q 132 1053 132 1071 l 132 42 q 144 13 132 25 q 175 0 157 0 l 294 0 q 325 13 313 0 q 338 42 338 25 l 338 763 l 389 763 l 389 685 q 401 654 389 667 q 431 642 414 642 l 517 642 l 517 556 q 529 526 517 539 q 558 514 542 514 l 647 514 l 647 419 q 659 389 647 401 q 689 376 671 376 l 767 376 z "},"o":{"ha":1103,"x_min":132,"x_max":971,"o":"m 175 1096 q 144 1083 157 1096 q 132 1053 132 1071 l 132 42 q 144 13 132 25 q 175 0 157 0 l 928 0 q 958 13 946 0 q 971 42 971 25 l 971 1053 q 958 1083 971 1071 q 928 1096 946 1096 l 175 1096 m 344 883 l 758 883 l 758 213 l 344 213 l 344 883 z "},"p":{"ha":1103,"x_min":132,"x_max":971,"o":"m 175 1096 q 144 1083 157 1096 q 132 1053 132 1071 l 132 42 q 144 13 132 25 q 175 0 157 0 l 294 0 q 325 13 313 0 q 338 42 338 25 l 338 376 l 810 376 q 839 389 826 376 q 851 419 851 401 l 851 506 l 928 506 q 958 517 946 506 q 971 547 971 529 l 971 925 q 958 955 971 943 q 928 967 946 967 l 842 967 l 842 1053 q 830 1083 842 1071 q 800 1096 818 1096 l 175 1096 m 344 597 l 344 892 l 767 892 l 767 597 l 344 597 z "},"q":{"ha":1103,"x_min":132,"x_max":1100,"o":"m 344 883 l 758 883 l 758 46 l 568 46 l 568 214 l 344 213 l 344 883 m 971 46 l 971 1053 q 958 1083 971 1071 q 928 1096 946 1096 l 175 1096 q 144 1083 157 1096 q 132 1053 132 1071 l 132 42 q 144 13 132 25 q 175 0 157 0 l 390 0 l 390 -110 q 403 -139 390 -126 q 432 -151 415 -151 l 1058 -151 q 1088 -139 1075 -151 q 1100 -110 1100 -126 l 1100 3 q 1088 33 1100 21 q 1058 46 1075 46 l 971 46 z "},"r":{"ha":1103,"x_min":132,"x_max":971,"o":"m 175 1096 q 144 1083 157 1096 q 132 1053 132 1071 l 132 42 q 144 13 132 25 q 175 0 157 0 l 294 0 q 325 13 313 0 q 338 42 338 25 l 338 369 l 510 369 l 510 299 q 522 269 510 281 q 551 257 535 257 l 647 257 l 647 169 q 659 140 647 153 q 689 128 671 128 l 775 128 l 775 42 q 788 13 775 25 q 817 0 800 0 l 928 0 q 958 13 946 0 q 971 42 971 25 l 971 154 q 958 185 971 172 q 928 197 946 197 l 842 197 l 842 283 q 830 313 842 300 q 800 325 818 325 l 721 325 l 721 376 l 810 376 q 839 389 826 376 q 851 419 851 401 l 851 506 l 928 506 q 958 517 946 506 q 971 547 971 529 l 971 925 q 958 955 971 943 q 928 967 946 967 l 842 967 l 842 1053 q 830 1083 842 1071 q 800 1096 818 1096 l 175 1096 m 344 597 l 344 892 l 767 892 l 767 597 l 344 597 z "},"s":{"ha":1103,"x_min":132,"x_max":971,"o":"m 175 975 q 144 963 157 975 q 132 933 132 950 l 132 685 q 144 654 132 667 q 175 642 157 642 l 261 642 l 261 556 q 273 526 261 539 q 303 514 285 514 l 767 514 l 767 204 l 329 204 l 329 283 q 317 313 329 300 q 288 325 304 325 l 175 325 q 144 313 157 325 q 132 283 132 300 l 132 169 q 144 140 132 153 q 175 128 157 128 l 261 128 l 261 42 q 273 13 261 25 q 303 0 285 0 l 810 0 q 839 13 826 0 q 851 42 851 25 l 851 121 l 928 121 q 958 133 946 121 q 971 163 971 146 l 971 539 q 958 569 971 557 q 928 582 946 582 l 842 582 l 842 668 q 830 697 842 685 q 800 710 818 710 l 338 710 l 338 892 l 775 892 l 775 813 q 788 783 775 794 q 817 771 800 771 l 928 771 q 958 783 946 771 q 971 813 971 794 l 971 925 q 958 955 971 943 q 928 967 946 967 l 842 967 l 842 1053 q 830 1083 842 1071 q 800 1096 818 1096 l 294 1096 q 265 1083 278 1096 q 253 1053 253 1071 l 253 975 l 175 975 z "},"t":{"ha":963,"x_min":126,"x_max":836,"o":"m 375 892 l 375 42 q 388 13 375 25 q 417 0 400 0 l 546 0 q 575 13 563 0 q 588 42 588 25 l 588 892 l 794 892 q 824 903 811 892 q 836 933 836 915 l 836 1053 q 824 1083 836 1071 q 794 1096 811 1096 l 168 1096 q 139 1083 151 1096 q 126 1053 126 1071 l 126 933 q 139 903 126 915 q 168 892 151 892 l 375 892 z "},"u":{"ha":1103,"x_min":132,"x_max":971,"o":"m 175 1096 q 144 1083 157 1096 q 132 1053 132 1071 l 132 169 q 144 140 132 153 q 175 128 157 128 l 261 128 l 261 42 q 273 13 261 25 q 303 0 285 0 l 810 0 q 839 13 826 0 q 851 42 851 25 l 851 121 l 928 121 q 958 133 946 121 q 971 163 971 146 l 971 1053 q 958 1083 971 1071 q 928 1096 946 1096 l 810 1096 q 779 1083 792 1096 q 767 1053 767 1071 l 767 204 l 329 204 l 329 1053 q 317 1083 329 1071 q 288 1096 304 1096 l 175 1096 z "},"v":{"ha":963,"x_min":126,"x_max":836,"o":"m 168 1096 q 139 1083 151 1096 q 126 1053 126 1071 l 126 556 q 139 526 126 539 q 168 514 151 514 l 254 514 l 254 299 q 267 269 254 281 q 296 257 279 257 l 383 257 l 383 42 q 395 13 383 25 q 425 0 407 0 l 546 0 q 575 13 563 0 q 588 42 588 25 l 588 249 l 674 249 q 703 261 690 249 q 715 290 715 274 l 715 506 l 794 506 q 824 517 811 506 q 836 547 836 529 l 836 1053 q 824 1083 836 1071 q 794 1096 811 1096 l 674 1096 q 644 1083 656 1096 q 632 1053 632 1071 l 632 589 l 546 589 q 515 576 528 589 q 503 547 503 564 l 503 332 l 451 332 l 451 539 q 439 569 451 557 q 410 582 426 582 l 324 582 l 324 1053 q 311 1083 324 1071 q 282 1096 299 1096 l 168 1096 z "},"w":{"ha":1103,"x_min":132,"x_max":971,"o":"m 767 121 l 767 42 q 779 13 767 25 q 810 0 792 0 l 928 0 q 958 13 946 0 q 971 42 971 25 l 971 1053 q 958 1083 971 1071 q 928 1096 946 1096 l 810 1096 q 779 1083 792 1096 q 767 1053 767 1071 l 767 332 l 714 332 l 714 411 q 701 441 714 429 q 672 453 689 453 l 424 453 q 394 441 406 453 q 382 411 382 429 l 382 340 l 338 340 l 338 1053 q 325 1083 338 1071 q 294 1096 313 1096 l 175 1096 q 144 1083 157 1096 q 132 1053 132 1071 l 132 42 q 144 13 132 25 q 175 0 157 0 l 294 0 q 325 13 313 0 q 338 42 338 25 l 338 121 l 424 121 q 453 133 440 121 q 465 163 465 146 l 465 249 l 647 249 l 647 163 q 659 133 647 146 q 689 121 671 121 l 767 121 z "},"x":{"ha":1103,"x_min":132,"x_max":971,"o":"m 175 1096 q 144 1083 157 1096 q 132 1053 132 1071 l 132 813 q 144 783 132 794 q 175 771 157 771 l 261 771 l 261 685 q 273 654 261 667 q 303 642 285 642 l 382 642 l 382 461 l 294 461 q 265 449 278 461 q 253 419 253 436 l 253 332 l 175 332 q 144 320 157 332 q 132 290 132 308 l 132 42 q 144 13 132 25 q 175 0 157 0 l 294 0 q 325 13 313 0 q 338 42 338 25 l 338 249 l 424 249 q 453 261 440 249 q 465 290 465 274 l 465 376 l 647 376 l 647 299 q 659 269 647 281 q 689 257 671 257 l 775 257 l 775 42 q 788 13 775 25 q 817 0 800 0 l 928 0 q 958 13 946 0 q 971 42 971 25 l 971 283 q 958 313 971 300 q 928 325 946 325 l 842 325 l 842 411 q 830 441 842 429 q 800 453 818 453 l 721 453 l 721 635 l 810 635 q 839 647 826 635 q 851 676 851 660 l 851 763 l 928 763 q 958 775 946 763 q 971 804 971 788 l 971 1053 q 958 1083 971 1071 q 928 1096 946 1096 l 810 1096 q 779 1083 792 1096 q 767 1053 767 1071 l 767 847 l 679 847 q 650 835 663 847 q 638 804 638 822 l 638 718 l 457 718 l 457 796 q 445 825 457 813 q 415 838 433 838 l 329 838 l 329 1053 q 317 1083 329 1071 q 288 1096 304 1096 l 175 1096 z "},"y":{"ha":963,"x_min":126,"x_max":836,"o":"m 168 1096 q 139 1083 151 1096 q 126 1053 126 1071 l 126 685 q 139 654 126 667 q 168 642 151 642 l 254 642 l 254 556 q 267 526 254 539 q 296 514 279 514 l 383 514 l 383 42 q 395 13 383 25 q 425 0 407 0 l 546 0 q 575 13 563 0 q 588 42 588 25 l 588 506 l 674 506 q 703 517 690 506 q 715 547 715 529 l 715 635 l 794 635 q 824 647 811 635 q 836 676 836 660 l 836 1053 q 824 1083 836 1071 q 794 1096 811 1096 l 674 1096 q 644 1083 656 1096 q 632 1053 632 1071 l 632 718 l 546 718 q 515 706 528 718 q 503 676 503 694 l 503 589 l 451 589 l 451 668 q 439 697 451 685 q 410 710 426 710 l 324 710 l 324 1053 q 311 1083 324 1071 q 282 1096 299 1096 l 168 1096 z "},"z":{"ha":1103,"x_min":132,"x_max":971,"o":"m 175 332 q 144 320 157 332 q 132 290 132 308 l 132 42 q 144 13 132 25 q 175 0 157 0 l 928 0 q 958 13 946 0 q 971 42 971 25 l 971 163 q 958 192 971 179 q 928 204 946 204 l 344 204 l 344 249 l 424 249 q 453 261 440 249 q 465 290 465 274 l 465 376 l 551 376 q 581 389 568 376 q 593 419 593 401 l 593 506 l 679 506 q 709 517 697 506 q 721 547 721 529 l 721 635 l 810 635 q 839 647 826 635 q 851 676 851 660 l 851 763 l 928 763 q 958 775 946 763 q 971 804 971 788 l 971 1053 q 958 1083 971 1071 q 928 1096 946 1096 l 175 1096 q 144 1083 157 1096 q 132 1053 132 1071 l 132 933 q 144 903 132 915 q 175 892 157 892 l 758 892 l 758 847 l 679 847 q 650 835 663 847 q 638 804 638 822 l 638 718 l 551 718 q 522 706 535 718 q 510 676 510 694 l 510 589 l 424 589 q 394 576 406 589 q 382 547 382 564 l 382 461 l 294 461 q 265 449 278 461 q 253 419 253 436 l 253 332 l 175 332 z "},"‚":{"ha":415,"x_min":103,"x_max":313,"o":"m 144 171 q 115 158 128 171 q 103 129 103 146 l 103 -111 q 115 -140 103 -128 q 144 -153 128 -153 l 271 -153 q 300 -140 288 -153 q 313 -111 313 -128 l 313 129 q 300 158 313 146 q 271 171 288 171 l 144 171 z "},"„":{"ha":415,"x_min":103,"x_max":313,"o":"m 144 171 q 115 158 128 171 q 103 129 103 146 l 103 -111 q 115 -140 103 -128 q 144 -153 128 -153 l 271 -153 q 300 -140 288 -153 q 313 -111 313 -128 l 313 129 q 300 158 313 146 q 271 171 288 171 l 144 171 z "},"‘":{"ha":415,"x_min":103,"x_max":313,"o":"m 144 1219 q 115 1207 128 1219 q 103 1178 103 1194 l 103 938 q 115 908 103 921 q 144 896 128 896 l 271 896 q 300 908 288 896 q 313 938 313 921 l 313 1178 q 300 1207 313 1194 q 271 1219 288 1219 l 144 1219 z "},"’":{"ha":415,"x_min":103,"x_max":313,"o":"m 144 1219 q 115 1207 128 1219 q 103 1178 103 1194 l 103 938 q 115 908 103 921 q 144 896 128 896 l 271 896 q 300 908 288 896 q 313 938 313 921 l 313 1178 q 300 1207 313 1194 q 271 1219 288 1219 l 144 1219 z "},"“":{"ha":415,"x_min":103,"x_max":313,"o":"m 144 1219 q 115 1207 128 1219 q 103 1178 103 1194 l 103 938 q 115 908 103 921 q 144 896 128 896 l 271 896 q 300 908 288 896 q 313 938 313 921 l 313 1178 q 300 1207 313 1194 q 271 1219 288 1219 l 144 1219 z "},"”":{"ha":415,"x_min":103,"x_max":313,"o":"m 144 1219 q 115 1207 128 1219 q 103 1178 103 1194 l 103 938 q 115 908 103 921 q 144 896 128 896 l 271 896 q 300 908 288 896 q 313 938 313 921 l 313 1178 q 300 1207 313 1194 q 271 1219 288 1219 l 144 1219 z "},"•":{"ha":1244,"x_min":139,"x_max":1106,"o":"m 1064 392 q 1093 403 1081 392 q 1106 433 1106 415 l 1106 554 q 1093 583 1106 571 q 1064 596 1081 596 l 943 596 q 914 583 926 596 q 901 554 901 571 l 901 475 l 815 475 q 785 463 797 475 q 774 433 774 450 l 774 347 l 686 347 q 656 335 668 347 q 644 306 644 322 l 644 218 l 592 218 l 592 296 q 579 326 592 314 q 550 338 567 338 l 464 338 l 464 425 q 451 456 464 443 q 422 468 439 468 l 335 468 l 335 554 q 322 583 335 571 q 292 596 310 596 l 181 596 q 151 583 164 596 q 139 554 139 571 l 139 440 q 151 411 139 424 q 181 399 164 399 l 267 399 l 267 313 q 279 283 267 296 q 308 271 292 271 l 394 271 l 394 185 q 407 155 394 167 q 438 143 419 143 l 525 143 l 525 57 q 537 26 525 39 q 567 14 549 14 l 686 14 q 715 26 703 14 q 728 57 728 39 l 728 133 l 815 133 q 844 146 832 133 q 857 175 857 158 l 857 263 l 943 263 q 973 275 961 263 q 985 306 985 288 l 985 392 l 1064 392 m 978 1028 l 978 1140 q 966 1169 978 1157 q 936 1182 954 1182 l 825 1182 q 795 1169 807 1182 q 783 1140 783 1157 l 783 1028 q 795 999 783 1011 q 825 986 807 986 l 936 986 q 966 999 954 986 q 978 1028 978 1011 m 422 1028 l 422 1140 q 410 1169 422 1157 q 381 1182 399 1182 l 269 1182 q 240 1169 251 1182 q 228 1140 228 1157 l 228 1028 q 240 999 228 1011 q 269 986 251 986 l 381 986 q 410 999 399 986 q 422 1028 422 1011 m 344 1074 q 336 1065 344 1065 l 314 1065 q 306 1074 306 1065 l 306 1096 q 314 1104 306 1104 l 336 1104 q 344 1096 344 1104 l 344 1074 m 900 1074 q 892 1065 900 1065 l 869 1065 q 861 1074 861 1065 l 861 1096 q 869 1104 861 1104 l 892 1104 q 900 1096 900 1104 l 900 1074 z "},"–":{"ha":963,"x_min":126,"x_max":836,"o":"m 168 582 q 139 569 151 582 q 126 539 126 557 l 126 426 q 139 397 126 410 q 168 385 151 385 l 794 385 q 824 397 811 385 q 836 426 836 410 l 836 539 q 824 569 836 557 q 794 582 811 582 l 168 582 z "},"—":{"ha":963,"x_min":126,"x_max":836,"o":"m 168 582 q 139 569 151 582 q 126 539 126 557 l 126 426 q 139 397 126 410 q 168 385 151 385 l 794 385 q 824 397 811 385 q 836 426 836 410 l 836 539 q 824 569 836 557 q 794 582 811 582 l 168 582 z "},"£":{"ha":963,"x_min":33,"x_max":922,"o":"m 375 892 l 375 42 q 388 13 375 25 q 417 0 400 0 l 546 0 q 575 13 563 0 q 588 42 588 25 l 588 892 l 794 892 q 824 903 811 892 q 836 933 836 915 l 836 1053 q 824 1083 836 1071 q 794 1096 811 1096 l 168 1096 q 139 1083 151 1096 q 126 1053 126 1071 l 126 933 q 139 903 126 915 q 168 892 151 892 l 375 892 m 228 667 l 228 779 q 216 808 228 796 q 186 821 204 821 l 75 821 q 45 808 57 821 q 33 779 33 796 l 33 667 q 45 638 33 650 q 75 625 57 625 l 186 625 q 216 638 204 625 q 228 667 228 650 m 150 713 q 142 704 150 704 l 119 704 q 111 713 111 704 l 111 733 q 119 742 111 742 l 142 742 q 150 733 150 742 l 150 713 m 922 667 l 922 779 q 910 808 922 796 q 881 821 899 821 l 769 821 q 740 808 751 821 q 728 779 728 796 l 728 667 q 740 638 728 650 q 769 625 751 625 l 881 625 q 910 638 899 625 q 922 667 922 650 m 844 713 q 836 704 844 704 l 814 704 q 806 713 806 704 l 806 733 q 814 742 806 742 l 836 742 q 844 733 844 742 l 844 713 z "},"¤":{"ha":1103,"x_min":-3,"x_max":971,"o":"m 28 507 q 5 497 13 507 q -3 476 -3 488 q 5 456 -3 465 q 28 446 13 446 l 132 446 l 132 169 q 144 140 132 153 q 175 128 157 128 l 261 128 l 261 42 q 273 13 261 25 q 303 0 285 0 l 810 0 q 839 13 826 0 q 851 42 851 25 l 851 121 l 928 121 q 958 133 946 121 q 971 163 971 146 l 971 283 q 958 313 971 300 q 928 325 946 325 l 810 325 q 779 313 792 325 q 767 283 767 300 l 767 204 l 338 204 l 338 446 l 931 446 q 953 456 946 446 q 961 476 961 465 q 953 497 961 488 q 931 507 946 507 l 338 507 l 338 599 l 931 599 q 953 608 946 599 q 961 629 961 618 q 953 650 961 640 q 931 660 946 660 l 338 660 l 338 892 l 775 892 l 775 813 q 788 783 775 794 q 817 771 800 771 l 928 771 q 958 783 946 771 q 971 813 971 794 l 971 925 q 958 955 971 943 q 928 967 946 967 l 842 967 l 842 1053 q 830 1083 842 1071 q 800 1096 818 1096 l 294 1096 q 265 1083 278 1096 q 253 1053 253 1071 l 253 975 l 175 975 q 144 963 157 975 q 132 933 132 950 l 132 660 l 28 660 q 5 650 13 660 q -3 629 -3 640 q 5 608 -3 618 q 28 599 13 599 l 132 599 l 132 507 l 28 507 z "},"§":{"ha":960,"x_min":38,"x_max":881,"o":"m 881 861 l 881 974 q 869 1003 881 990 q 839 1015 857 1015 l 728 1015 q 698 1003 710 1015 q 686 974 686 990 l 686 861 q 698 832 686 844 q 728 819 710 819 l 839 819 q 869 832 857 819 q 881 861 881 844 m 803 907 q 794 899 803 899 l 772 899 q 764 907 764 899 l 764 928 q 772 936 764 936 l 794 936 q 803 928 803 936 l 803 907 m 325 861 l 325 974 q 313 1003 325 990 q 283 1015 301 1015 l 172 1015 q 142 1003 154 1015 q 131 974 131 990 l 131 861 q 142 832 131 844 q 172 819 154 819 l 283 819 l 289 819 q 286 804 286 811 l 286 718 l 200 718 q 170 706 182 718 q 158 676 158 694 l 158 590 l 79 590 q 49 578 61 590 q 38 549 38 565 l 38 428 q 49 399 38 411 q 79 386 61 386 l 165 386 l 165 300 q 178 270 165 282 q 207 258 190 258 l 294 258 l 294 169 q 307 140 294 153 q 336 128 319 128 l 424 128 l 424 42 q 435 13 424 25 q 465 0 447 0 l 576 0 q 606 13 594 0 q 618 42 618 25 l 618 154 q 606 185 618 172 q 576 197 594 197 l 490 197 l 490 283 q 478 313 490 300 q 449 325 465 325 l 363 325 l 363 411 q 350 441 363 429 q 321 453 338 453 l 242 453 l 242 507 l 328 507 q 357 519 344 507 q 369 549 369 531 l 369 635 l 456 635 q 485 647 474 635 q 497 676 497 660 l 497 763 l 576 763 q 606 775 594 763 q 618 804 618 788 l 618 925 q 606 955 618 943 q 576 967 594 967 l 456 967 q 426 955 439 967 q 414 925 414 943 l 414 847 l 328 847 l 322 847 q 325 861 325 856 m 247 907 q 239 899 247 899 l 217 899 q 208 907 208 899 l 208 928 q 217 936 208 936 l 239 936 q 247 928 247 936 l 247 907 z "},"©":{"ha":1244,"x_min":139,"x_max":1106,"o":"m 181 204 q 151 192 164 204 q 139 163 139 181 l 139 42 q 151 13 139 25 q 181 0 164 0 l 301 0 q 331 13 318 0 q 343 42 343 25 l 343 121 l 429 121 q 459 133 447 121 q 471 163 471 146 l 471 249 l 558 249 q 588 261 576 249 q 600 290 600 274 l 600 378 l 653 378 l 653 300 q 665 270 653 282 q 694 258 678 258 l 781 258 l 781 171 q 793 140 781 153 q 822 128 806 128 l 910 128 l 910 42 q 922 13 910 25 q 953 0 935 0 l 1064 0 q 1093 13 1081 0 q 1106 42 1106 25 l 1106 156 q 1093 185 1106 172 q 1064 197 1081 197 l 978 197 l 978 283 q 965 313 978 300 q 936 325 953 325 l 850 325 l 850 411 q 838 441 850 429 q 807 453 825 453 l 719 453 l 719 539 q 708 569 719 557 q 678 582 696 582 l 558 582 q 529 569 542 582 q 517 539 517 557 l 517 463 l 429 463 q 400 450 413 463 q 388 421 388 438 l 388 333 l 301 333 q 272 321 283 333 q 260 290 260 308 l 260 204 l 181 204 m 364 1243 q 334 1231 346 1243 q 322 1201 322 1218 l 322 1090 q 334 1060 322 1072 q 364 1047 346 1047 l 443 1047 l 443 994 l 236 994 q 206 982 218 994 q 193 953 193 969 l 193 874 q 206 844 193 857 q 236 832 218 832 l 443 832 l 443 779 l 364 779 q 334 767 346 779 q 322 738 322 756 l 322 617 q 334 588 322 600 q 364 575 346 575 l 485 575 q 514 588 501 575 q 526 617 526 600 l 526 696 l 708 696 l 708 617 q 720 588 708 600 q 750 575 732 575 l 861 575 q 891 588 879 575 q 903 617 903 600 l 903 731 q 891 760 903 747 q 861 772 879 772 l 782 772 l 782 824 l 989 824 q 1019 836 1007 824 q 1032 867 1032 849 l 1032 944 q 1019 975 1032 963 q 989 988 1007 988 l 782 988 l 782 1039 l 861 1039 q 891 1051 879 1039 q 903 1081 903 1064 l 903 1201 q 891 1231 903 1218 q 861 1243 879 1243 l 740 1243 q 711 1231 724 1243 q 699 1201 699 1218 l 699 1122 l 518 1122 l 518 1201 q 506 1231 518 1218 q 476 1243 494 1243 l 364 1243 m 372 907 q 364 899 372 899 l 342 899 q 333 907 333 899 l 333 928 q 342 936 333 936 l 364 936 q 372 928 372 936 l 372 907 m 928 907 q 919 899 928 899 l 897 899 q 889 907 889 899 l 889 928 q 897 936 889 936 l 919 936 q 928 928 928 936 l 928 907 z "},"¬":{"ha":1613,"x_min":49,"x_max":1571,"o":"m 683 754 l 683 42 q 696 13 683 25 q 726 0 708 0 l 844 0 q 875 13 863 0 q 888 42 888 25 l 888 1053 q 875 1083 888 1071 q 844 1096 863 1096 l 726 1096 q 696 1083 708 1096 q 683 1053 683 1071 l 683 975 l 596 975 q 567 963 579 975 q 554 933 554 950 l 554 847 l 374 847 l 374 933 q 362 963 374 950 q 332 975 350 975 l 254 975 l 254 1053 q 242 1083 254 1071 q 211 1096 229 1096 l 92 1096 q 61 1083 74 1096 q 49 1053 49 1071 l 49 42 q 61 13 49 25 q 92 0 74 0 l 211 0 q 242 13 229 0 q 254 42 254 25 l 254 763 l 306 763 l 306 685 q 318 654 306 667 q 347 642 331 642 l 596 642 q 626 654 614 642 q 638 685 638 667 l 638 754 l 683 754 m 1414 0 q 1397 7 1404 0 q 1390 24 1390 14 l 1390 132 l 1317 132 q 1288 144 1300 132 q 1275 174 1275 156 l 1275 251 l 1189 251 q 1160 264 1172 251 q 1147 294 1147 276 l 1147 381 l 1061 381 q 1031 392 1043 381 q 1019 422 1019 404 l 1019 508 l 940 508 q 910 521 922 508 q 899 550 899 533 l 899 671 q 910 700 899 688 q 940 713 922 713 l 1026 713 l 1026 799 q 1039 828 1026 817 q 1068 840 1051 840 l 1156 840 l 1156 929 q 1168 958 1156 946 q 1197 971 1181 971 l 1285 971 l 1285 1057 q 1297 1086 1285 1074 q 1326 1099 1308 1099 l 1438 1099 q 1467 1086 1456 1099 q 1479 1057 1479 1074 l 1479 944 q 1467 914 1479 926 q 1438 901 1456 901 l 1351 901 l 1351 815 q 1339 786 1351 799 q 1310 774 1326 774 l 1224 774 l 1224 688 q 1211 658 1224 669 q 1182 646 1199 646 l 1103 646 l 1103 592 l 1189 592 q 1218 580 1206 592 q 1231 550 1231 568 l 1231 464 l 1317 464 q 1347 451 1335 464 q 1358 422 1358 439 l 1358 336 l 1438 336 q 1467 324 1456 336 q 1479 294 1479 311 l 1479 181 l 1547 181 q 1564 174 1557 181 q 1571 157 1571 167 l 1571 24 q 1564 7 1571 14 q 1547 0 1557 0 l 1414 0 z "},"®":{"ha":1244,"x_min":139,"x_max":1106,"o":"m 181 204 q 151 192 164 204 q 139 163 139 181 l 139 42 q 151 13 139 25 q 181 0 164 0 l 301 0 q 331 13 318 0 q 343 42 343 25 l 343 121 l 429 121 q 459 133 447 121 q 471 163 471 146 l 471 249 l 558 249 q 588 261 576 249 q 600 290 600 274 l 600 378 l 653 378 l 653 300 q 665 270 653 282 q 694 258 678 258 l 781 258 l 781 171 q 793 140 781 153 q 822 128 806 128 l 910 128 l 910 42 q 922 13 910 25 q 953 0 935 0 l 1064 0 q 1093 13 1081 0 q 1106 42 1106 25 l 1106 156 q 1093 185 1106 172 q 1064 197 1081 197 l 978 197 l 978 283 q 965 313 978 300 q 936 325 953 325 l 850 325 l 850 411 q 838 441 850 429 q 807 453 825 453 l 719 453 l 719 539 q 708 569 719 557 q 678 582 696 582 l 558 582 q 529 569 542 582 q 517 539 517 557 l 517 463 l 429 463 q 400 450 413 463 q 388 421 388 438 l 388 333 l 301 333 q 272 321 283 333 q 260 290 260 308 l 260 204 l 181 204 m 992 861 l 992 974 q 980 1003 992 990 q 950 1015 968 1015 l 839 1015 q 809 1003 821 1015 q 797 974 797 990 l 797 861 q 809 832 797 844 q 839 819 821 819 l 950 819 q 980 832 968 819 q 992 861 992 844 m 436 861 l 436 974 q 424 1003 436 990 q 394 1015 413 1015 l 283 1015 q 253 1003 265 1015 q 242 974 242 990 l 242 861 q 253 832 242 844 q 283 819 265 819 l 394 819 q 424 832 413 819 q 436 861 436 844 m 358 907 q 350 899 358 899 l 328 899 q 319 907 319 899 l 319 928 q 328 936 319 936 l 350 936 q 358 928 358 936 l 358 907 m 914 907 q 906 899 914 899 l 883 899 q 875 907 875 899 l 875 928 q 883 936 875 936 l 906 936 q 914 928 914 936 l 914 907 z "},"°":{"ha":1103,"x_min":132,"x_max":457,"o":"m 457 813 l 457 1053 q 445 1083 457 1071 q 415 1096 433 1096 l 175 1096 q 144 1083 157 1096 q 132 1053 132 1071 l 132 813 q 144 783 132 794 q 175 771 157 771 l 415 771 q 445 783 433 771 q 457 813 457 794 m 365 881 q 347 863 365 863 l 242 863 q 224 881 224 863 l 224 986 q 242 1004 224 1004 l 347 1004 q 365 986 365 1004 l 365 881 z "},"¶":{"ha":1281,"x_min":63,"x_max":1228,"o":"m 106 204 q 75 192 88 204 q 63 163 63 181 l 63 42 q 75 13 63 25 q 106 0 88 0 l 225 0 q 256 13 243 0 q 268 42 268 25 l 268 121 l 354 121 q 383 133 371 121 q 396 163 396 146 l 396 249 l 482 249 q 511 261 499 249 q 524 292 524 274 l 524 378 l 610 378 q 640 390 628 378 q 651 419 651 401 l 651 506 l 740 506 q 769 518 757 506 q 782 547 782 531 l 782 635 l 858 635 q 889 647 876 635 q 901 676 901 660 l 901 796 q 889 826 901 814 q 858 838 876 838 l 740 838 q 710 826 722 838 q 697 796 697 814 l 697 719 l 610 719 q 581 707 593 719 q 568 676 568 694 l 568 589 l 482 589 q 453 577 465 589 q 440 547 440 565 l 440 461 l 354 461 q 324 449 336 461 q 313 419 313 436 l 313 333 l 225 333 q 196 321 208 333 q 183 292 183 308 l 183 204 l 106 204 m 506 733 l 506 846 q 494 875 506 863 q 464 888 482 888 l 353 888 q 323 875 335 888 q 311 846 311 863 l 311 733 q 323 704 311 717 q 353 692 335 692 l 464 692 q 494 704 482 692 q 506 733 506 717 m 428 779 q 419 771 428 771 l 397 771 q 389 779 389 771 l 389 800 q 397 808 389 808 l 419 808 q 428 800 428 808 l 428 779 m 1228 733 l 1228 846 q 1216 875 1228 863 q 1186 888 1204 888 l 1075 888 q 1045 875 1057 888 q 1033 846 1033 863 l 1033 733 q 1045 704 1033 717 q 1075 692 1057 692 l 1186 692 q 1216 704 1204 692 q 1228 733 1228 717 m 1150 779 q 1142 771 1150 771 l 1119 771 q 1111 779 1111 771 l 1111 800 q 1119 808 1111 808 l 1142 808 q 1150 800 1150 808 l 1150 779 z "},"Ä":{"ha":1103,"x_min":132,"x_max":971,"o":"m 175 975 q 144 963 157 975 q 132 933 132 950 l 132 42 q 144 13 132 25 q 175 0 157 0 l 294 0 q 325 13 313 0 q 338 42 338 25 l 338 369 l 767 369 l 767 42 q 779 13 767 25 q 810 0 792 0 l 928 0 q 958 13 946 0 q 971 42 971 25 l 971 925 q 958 955 971 943 q 928 967 946 967 l 842 967 l 842 1053 q 830 1083 842 1071 q 800 1096 818 1096 l 294 1096 q 265 1083 278 1096 q 253 1053 253 1071 l 253 975 l 175 975 m 344 597 l 344 892 l 767 892 l 767 597 l 344 597 m 175 1332 q 144 1319 157 1332 q 132 1289 132 1307 l 132 1178 q 144 1149 132 1161 q 175 1136 157 1136 l 286 1136 q 315 1149 303 1136 q 328 1178 328 1161 l 328 1289 q 315 1319 328 1307 q 286 1332 303 1332 l 175 1332 m 813 1326 q 783 1314 796 1326 q 771 1285 771 1301 l 771 1172 q 783 1143 771 1156 q 813 1131 796 1131 l 925 1131 q 954 1143 942 1131 q 967 1172 967 1156 l 967 1285 q 954 1314 967 1301 q 925 1326 942 1326 l 813 1326 z "},"Ì":{"ha":1103,"x_min":132,"x_max":971,"o":"m 175 975 q 144 963 157 975 q 132 933 132 950 l 132 169 q 144 140 132 153 q 175 128 157 128 l 261 128 l 261 42 q 273 13 261 25 q 303 0 285 0 l 679 0 q 709 13 697 0 q 721 42 721 25 l 721 121 l 775 121 l 775 42 q 788 13 775 25 q 817 0 800 0 l 928 0 q 958 13 946 0 q 971 42 971 25 l 971 154 q 958 185 971 172 q 928 197 946 197 l 851 197 l 851 249 l 928 249 q 958 261 946 249 q 971 290 971 274 l 971 925 q 958 955 971 943 q 928 967 946 967 l 842 967 l 842 1053 q 830 1083 842 1071 q 800 1096 818 1096 l 294 1096 q 265 1083 278 1096 q 253 1053 253 1071 l 253 975 l 175 975 m 558 453 q 529 441 542 453 q 517 411 517 429 l 517 299 q 529 269 517 281 q 558 257 542 257 l 638 257 l 638 204 l 338 204 l 338 892 l 767 892 l 767 332 l 714 332 l 714 411 q 701 441 714 429 q 672 453 689 453 l 558 453 z "},"Í":{"ha":807,"x_min":33,"x_max":783,"o":"m 783 861 l 783 974 q 772 1003 783 990 q 742 1015 760 1015 l 631 1015 q 601 1003 613 1015 q 589 974 589 990 l 589 861 q 601 832 589 844 q 631 819 613 819 l 742 819 q 772 832 760 819 q 783 861 783 844 m 228 861 l 228 974 q 216 1003 228 990 q 186 1015 204 1015 l 75 1015 q 45 1003 57 1015 q 33 974 33 990 l 33 861 q 45 832 33 844 q 75 819 57 819 l 186 819 q 216 832 204 819 q 228 861 228 844 m 150 907 q 142 899 150 899 l 119 899 q 111 907 111 899 l 111 928 q 119 936 111 936 l 142 936 q 150 928 150 936 l 150 907 m 706 907 q 697 899 706 899 l 675 899 q 667 907 667 899 l 667 928 q 675 936 667 936 l 697 936 q 706 928 706 936 l 706 907 z "},"Ö":{"ha":1104,"x_min":132,"x_max":972,"o":"m 178 1096 q 146 1083 158 1096 q 133 1053 133 1071 l 133 42 q 147 13 133 25 q 178 0 160 0 l 931 0 q 960 13 949 0 q 972 42 972 25 l 972 1053 q 960 1083 972 1071 q 929 1096 947 1096 l 178 1096 m 346 883 l 761 883 l 761 213 l 346 213 l 346 883 m 175 1335 q 144 1323 157 1335 q 132 1293 132 1311 l 132 1182 q 145 1152 132 1164 q 176 1140 158 1140 l 288 1140 q 317 1152 304 1140 q 329 1182 329 1164 l 329 1293 q 316 1323 329 1311 q 286 1335 303 1335 l 175 1335 m 814 1331 q 783 1318 796 1331 q 771 1289 771 1306 l 771 1176 q 784 1147 771 1160 q 814 1135 797 1135 l 926 1135 q 956 1147 943 1135 q 968 1176 968 1160 l 968 1289 q 955 1318 968 1306 q 925 1331 942 1331 l 814 1331 z "},"Ü":{"ha":1103,"x_min":132,"x_max":971,"o":"m 175 1096 q 144 1083 157 1096 q 132 1053 132 1071 l 132 169 q 144 140 132 153 q 175 128 157 128 l 261 128 l 261 42 q 273 13 261 25 q 303 0 285 0 l 810 0 q 839 13 826 0 q 851 42 851 25 l 851 121 l 928 121 q 958 133 946 121 q 971 163 971 146 l 971 1053 q 958 1083 971 1071 q 928 1096 946 1096 l 810 1096 q 779 1083 792 1096 q 767 1053 767 1071 l 767 204 l 329 204 l 329 1053 q 317 1083 329 1071 q 288 1096 304 1096 l 175 1096 m 814 1342 q 785 1329 797 1342 q 772 1300 772 1317 l 772 1188 q 785 1158 772 1171 q 814 1146 797 1146 l 926 1146 q 956 1158 943 1146 q 968 1188 968 1171 l 968 1300 q 956 1329 968 1317 q 926 1342 943 1342 l 814 1342 m 176 1347 q 146 1335 158 1347 q 133 1304 133 1322 l 133 1193 q 146 1164 133 1176 q 176 1151 158 1151 l 288 1151 q 317 1164 304 1151 q 329 1193 329 1176 l 329 1304 q 317 1335 329 1322 q 288 1347 304 1347 l 176 1347 z "},"ß":{"ha":1229,"x_min":132,"x_max":1131,"o":"m 800 764 q 830 776 818 764 q 842 806 842 788 l 842 1054 q 830 1083 842 1071 q 800 1096 818 1096 l 679 1096 q 650 1083 663 1096 q 638 1054 638 1071 l 638 847 l 551 847 q 522 835 535 847 q 510 806 510 822 l 510 719 l 424 719 q 394 707 406 719 q 382 676 382 694 l 382 590 l 293 590 q 264 578 276 590 q 251 549 251 567 l 251 461 l 175 461 q 144 449 157 461 q 132 419 132 436 l 132 43 q 144 13 132 25 q 175 0 157 0 l 928 0 q 958 13 946 0 q 971 43 971 25 l 971 163 q 958 192 971 181 q 928 204 946 204 l 344 204 l 344 378 l 424 378 q 453 390 440 378 q 465 419 465 401 l 465 507 l 551 507 q 581 519 568 507 q 593 549 593 532 l 593 635 l 679 635 q 709 647 697 635 q 721 676 721 660 l 721 764 l 800 764 m 1131 1069 l 1131 1182 q 1119 1211 1131 1199 q 1089 1224 1107 1224 l 978 1224 q 948 1211 960 1224 q 936 1182 936 1199 l 936 1069 q 948 1040 936 1053 q 978 1028 960 1028 l 1089 1028 q 1119 1040 1107 1028 q 1131 1069 1131 1053 m 575 1069 l 575 1182 q 563 1211 575 1199 q 533 1224 551 1224 l 422 1224 q 392 1211 404 1224 q 381 1182 381 1199 l 381 1069 q 392 1040 381 1053 q 422 1028 404 1028 l 533 1028 q 563 1040 551 1028 q 575 1069 575 1053 m 497 1115 q 489 1107 497 1107 l 467 1107 q 458 1115 458 1107 l 458 1136 q 467 1144 458 1144 l 489 1144 q 497 1136 497 1144 l 497 1115 m 1053 1115 q 1044 1107 1053 1107 l 1022 1107 q 1014 1115 1014 1107 l 1014 1136 q 1022 1144 1014 1144 l 1044 1144 q 1053 1136 1053 1144 l 1053 1115 z "},"ä":{"ha":1103,"x_min":132,"x_max":971,"o":"m 175 975 q 144 963 157 975 q 132 933 132 950 l 132 42 q 144 13 132 25 q 175 0 157 0 l 294 0 q 325 13 313 0 q 338 42 338 25 l 338 369 l 767 369 l 767 42 q 779 13 767 25 q 810 0 792 0 l 928 0 q 958 13 946 0 q 971 42 971 25 l 971 925 q 958 955 971 943 q 928 967 946 967 l 842 967 l 842 1053 q 830 1083 842 1071 q 800 1096 818 1096 l 294 1096 q 265 1083 278 1096 q 253 1053 253 1071 l 253 975 l 175 975 m 344 597 l 344 892 l 767 892 l 767 597 l 344 597 m 176 1347 q 146 1335 158 1347 q 133 1304 133 1322 l 133 1193 q 146 1164 133 1176 q 176 1151 158 1151 l 288 1151 q 317 1164 304 1151 q 329 1193 329 1176 l 329 1304 q 317 1335 329 1322 q 288 1347 304 1347 l 176 1347 m 814 1342 q 785 1329 797 1342 q 772 1300 772 1317 l 772 1188 q 785 1158 772 1171 q 814 1146 797 1146 l 926 1146 q 956 1158 943 1146 q 968 1188 968 1171 l 968 1300 q 956 1329 968 1317 q 926 1342 943 1342 l 814 1342 z "},"ö":{"ha":1103,"x_min":132,"x_max":971,"o":"m 175 1096 q 144 1083 157 1096 q 132 1053 132 1071 l 132 42 q 144 13 132 25 q 175 0 157 0 l 928 0 q 958 13 946 0 q 971 42 971 25 l 971 1053 q 958 1083 971 1071 q 928 1096 946 1096 l 175 1096 m 344 883 l 758 883 l 758 213 l 344 213 l 344 883 m 175 1332 q 144 1319 157 1332 q 132 1289 132 1307 l 132 1178 q 144 1149 132 1161 q 175 1136 157 1136 l 286 1136 q 315 1149 303 1136 q 328 1178 328 1161 l 328 1289 q 315 1319 328 1307 q 286 1332 303 1332 l 175 1332 m 813 1326 q 783 1314 796 1326 q 771 1285 771 1301 l 771 1172 q 783 1143 771 1156 q 813 1131 796 1131 l 925 1131 q 954 1143 942 1131 q 967 1172 967 1156 l 967 1285 q 954 1314 967 1301 q 925 1326 942 1326 l 813 1326 z "},"ü":{"ha":1103,"x_min":132,"x_max":971,"o":"m 175 1096 q 144 1083 157 1096 q 132 1053 132 1071 l 132 169 q 144 140 132 153 q 175 128 157 128 l 261 128 l 261 42 q 273 13 261 25 q 303 0 285 0 l 810 0 q 839 13 826 0 q 851 42 851 25 l 851 121 l 928 121 q 958 133 946 121 q 971 163 971 146 l 971 1053 q 958 1083 971 1071 q 928 1096 946 1096 l 810 1096 q 779 1083 792 1096 q 767 1053 767 1071 l 767 204 l 329 204 l 329 1053 q 317 1083 329 1071 q 288 1096 304 1096 l 175 1096 m 814 1342 q 785 1329 797 1342 q 772 1300 772 1317 l 772 1188 q 785 1158 772 1171 q 814 1146 797 1146 l 926 1146 q 956 1158 943 1146 q 968 1188 968 1171 l 968 1300 q 956 1329 968 1317 q 926 1342 943 1342 l 814 1342 m 176 1347 q 146 1335 158 1347 q 133 1304 133 1322 l 133 1193 q 146 1164 133 1176 q 176 1151 158 1151 l 288 1151 q 317 1164 304 1151 q 329 1193 329 1176 l 329 1304 q 317 1335 329 1322 q 288 1347 304 1347 l 176 1347 z "}}}
